<svg width="20" height="20" viewBox="0 0 20 20" fill="none" xmlns="http://www.w3.org/2000/svg">
<path d="M10.6134 17.7873C10.3113 17.9068 9.98077 17.9353 9.6626 17.8695C9.34443 17.8036 9.05245 17.6461 8.82259 17.4165L5.28592 13.8806C4.48488 13.0796 3.90119 12.0876 3.58993 10.9983C3.27868 9.90906 3.25014 8.75845 3.507 7.65509C3.76386 6.55173 4.29765 5.53203 5.05799 4.69223C5.81833 3.85243 6.78013 3.22024 7.85261 2.85533C8.92509 2.49042 10.0729 2.40483 11.1876 2.60663C12.3024 2.80843 13.3473 3.29097 14.2238 4.00871C15.1003 4.72644 15.7794 5.65569 16.1971 6.70875C16.6147 7.7618 16.7572 8.90392 16.6109 10.0273M15.8334 13.3333V18.3333M15.8334 18.3333L18.3334 15.8333M15.8334 18.3333L13.3334 15.8333M7.50004 9.16667C7.50004 9.82971 7.76343 10.4656 8.23227 10.9344C8.70111 11.4033 9.337 11.6667 10 11.6667C10.6631 11.6667 11.299 11.4033 11.7678 10.9344C12.2366 10.4656 12.5 9.82971 12.5 9.16667C12.5 8.50363 12.2366 7.86774 11.7678 7.3989C11.299 6.93006 10.6631 6.66667 10 6.66667C9.337 6.66667 8.70111 6.93006 8.23227 7.3989C7.76343 7.86774 7.50004 8.50363 7.50004 9.16667Z" stroke="white" stroke-width="1.66667" stroke-linecap="round" stroke-linejoin="round"/>
</svg>
