<svg width="25" height="25" viewBox="0 0 25 25" fill="none" xmlns="http://www.w3.org/2000/svg">
<path d="M17.1355 20.7778C16.1556 21.7277 15.0857 21.5777 14.0559 21.1278C12.966 20.6678 11.9661 20.6478 10.8163 21.1278C9.37646 21.7477 8.61656 21.5677 7.75667 20.7778C2.87728 15.7485 3.59719 8.08942 9.13649 7.80946C10.4863 7.87945 11.4262 8.54936 12.2161 8.60935C13.396 8.36939 14.5258 7.67947 15.7857 7.76946C17.2955 7.88945 18.4353 8.48937 19.1852 9.56923C16.0656 11.439 16.8055 15.5485 19.6652 16.6983C19.0952 18.1981 18.3553 19.688 17.1255 20.7878L17.1355 20.7778ZM12.1161 7.74946C11.9661 5.51975 13.7759 3.67998 15.8556 3.5C16.1456 6.07967 13.5159 7.99943 12.1161 7.74946Z" fill="#6B7280"/>
</svg>
