<svg width="16" height="16" viewBox="0 0 16 16" fill="none" xmlns="http://www.w3.org/2000/svg">
<path d="M12.7224 1.3335L7.16691 1.3335C7.01358 1.3335 6.88913 1.45795 6.88913 1.61129C6.88913 1.76463 7.01358 1.88907 7.16691 1.88907L12.7224 1.88907C13.0052 1.88907 13.268 1.97408 13.488 2.11964L7.45135 8.15628L1.41475 14.1929C1.30641 14.3013 1.30641 14.4774 1.41475 14.5857C1.46919 14.6402 1.5403 14.6668 1.61141 14.6668C1.68252 14.6668 1.75363 14.6396 1.80807 14.5857L13.8807 2.51243C14.0263 2.73189 14.1113 2.99523 14.1113 3.27802L14.1113 8.83381C14.1113 8.98715 14.2357 9.1116 14.3891 9.1116C14.5424 9.1116 14.6668 8.98715 14.6668 8.83381L14.6668 3.27802C14.6668 2.20575 13.7946 1.3335 12.7224 1.3335Z" fill="#C56F89"/>
</svg>
