<svg width="24" height="24" viewBox="0 0 24 24" fill="none" xmlns="http://www.w3.org/2000/svg">
<path d="M11.6665 2C10.2915 2 9.1665 3.125 9.1665 4.5V19.5C9.1665 20.875 10.2915 22 11.6665 22C13.0415 22 14.1665 20.875 14.1665 19.5V4.5C14.1665 3.125 13.0415 2 11.6665 2ZM13.3332 19.5C13.3332 20.4167 12.5832 21.1667 11.6665 21.1667C10.7498 21.1667 9.99984 20.4167 9.99984 19.5V4.5C9.99984 3.58333 10.7498 2.83333 11.6665 2.83333C12.5832 2.83333 13.3332 3.58333 13.3332 4.5V19.5ZM19.1665 7C17.7915 7 16.6665 8.125 16.6665 9.5V19.5C16.6665 20.875 17.7915 22 19.1665 22C20.5415 22 21.6665 20.875 21.6665 19.5V9.5C21.6665 8.125 20.5415 7 19.1665 7ZM20.8332 19.5C20.8332 20.4167 20.0832 21.1667 19.1665 21.1667C18.2498 21.1667 17.4998 20.4167 17.4998 19.5V9.5C17.4998 8.58333 18.2498 7.83333 19.1665 7.83333C20.0832 7.83333 20.8332 8.58333 20.8332 9.5V19.5ZM4.1665 12C2.7915 12 1.6665 13.125 1.6665 14.5V19.5C1.6665 20.875 2.7915 22 4.1665 22C5.5415 22 6.6665 20.875 6.6665 19.5V14.5C6.6665 13.125 5.5415 12 4.1665 12ZM5.83317 19.5C5.83317 20.4167 5.08317 21.1667 4.1665 21.1667C3.24984 21.1667 2.49984 20.4167 2.49984 19.5V14.5C2.49984 13.5833 3.24984 12.8333 4.1665 12.8333C5.08317 12.8333 5.83317 13.5833 5.83317 14.5V19.5Z" fill="#6D6D6D"/>
</svg>
