<svg width="25" height="24" viewBox="0 0 25 24" fill="none" xmlns="http://www.w3.org/2000/svg">
<path d="M17.8223 3.8984C16.2287 2.4775 14.0893 1.80331 11.9465 2.04999C8.61849 2.43167 5.8681 5.11262 5.4072 8.42276C5.05631 10.9345 5.97228 13.4313 7.85671 15.1005C8.9002 16.0247 9.49862 17.3715 9.49862 18.7932V19.0832C9.49862 20.6916 10.8071 22 12.4157 22H13.2492C14.8577 22 16.1662 20.6916 16.1662 19.0832V18.789C16.1662 17.384 16.793 16.0314 17.9315 14.9797C19.4575 13.568 20.3335 11.5704 20.3335 9.49947C20.3335 7.36355 19.4184 5.32179 17.8223 3.8984ZM15.3328 19.0824C15.3328 20.2308 14.3985 21.1658 13.2492 21.1658H12.4157C11.2664 21.1658 10.3321 20.2308 10.3321 19.0824V18.7924C10.3321 18.4682 10.3046 18.1465 10.2529 17.8323H15.4161C15.3611 18.1465 15.3328 18.4657 15.3328 18.7882V19.0824ZM17.3656 14.3672C16.543 15.1272 15.9529 16.0281 15.6262 16.999H13.2483V10.7137C14.4293 10.5145 15.3319 9.4853 15.3319 8.24858C15.3319 8.01857 15.1453 7.8319 14.9152 7.8319C14.6852 7.8319 14.4985 8.01857 14.4985 8.24858C14.4985 9.16779 13.7509 9.91532 12.8316 9.91532C11.9123 9.91532 11.1647 9.16779 11.1647 8.24858C11.1647 8.01857 10.978 7.8319 10.748 7.8319C10.5179 7.8319 10.3312 8.01857 10.3312 8.24858C10.3312 9.4853 11.2339 10.5145 12.4149 10.7137V16.999H10.0504C9.73865 16.0314 9.1769 15.1572 8.40929 14.4763C6.73405 12.993 5.9206 10.7729 6.23232 8.53776C6.64154 5.59764 9.08439 3.21754 12.0406 2.87752C12.3099 2.84669 12.5774 2.83169 12.8424 2.83169C14.4827 2.83169 16.0304 3.41754 17.2689 4.52092C18.6866 5.78598 19.5009 7.60022 19.5009 9.49864C19.5009 11.3654 18.7433 13.0946 17.3664 14.3672H17.3656Z" fill="#6D6D6D"/>
</svg>
