<svg width="16" height="16" viewBox="0 0 16 16" fill="none" xmlns="http://www.w3.org/2000/svg">
<path d="M14.6668 6.6665V10.6665C14.6668 11.3737 14.3859 12.052 13.8858 12.5521C13.3857 13.0522 12.7074 13.3332 12.0002 13.3332H4.00016C3.29292 13.3332 2.61464 13.0522 2.11454 12.5521C1.61445 12.052 1.3335 11.3737 1.3335 10.6665V6.6665H14.6668ZM4.6735 9.33317H4.66683C4.57928 9.33361 4.49268 9.35128 4.41196 9.38519C4.33124 9.4191 4.258 9.46857 4.1964 9.53079C4.072 9.65644 4.00261 9.82636 4.0035 10.0032C4.00393 10.0907 4.02161 10.1773 4.05552 10.258C4.08943 10.3388 4.1389 10.412 4.20112 10.4736C4.26333 10.5352 4.33707 10.5839 4.41812 10.617C4.49917 10.6501 4.58595 10.6669 4.6735 10.6665C4.85031 10.6665 5.01988 10.5963 5.1449 10.4712C5.26992 10.3462 5.34016 10.1766 5.34016 9.99984C5.34016 9.82303 5.26992 9.65346 5.1449 9.52843C5.01988 9.40341 4.85031 9.33317 4.6735 9.33317ZM8.66683 9.33317H7.3335C7.15668 9.33317 6.98712 9.40341 6.86209 9.52843C6.73707 9.65346 6.66683 9.82303 6.66683 9.99984C6.66683 10.1766 6.73707 10.3462 6.86209 10.4712C6.98712 10.5963 7.15668 10.6665 7.3335 10.6665H8.66683C8.84364 10.6665 9.01321 10.5963 9.13823 10.4712C9.26326 10.3462 9.3335 10.1766 9.3335 9.99984C9.3335 9.82303 9.26326 9.65346 9.13823 9.52843C9.01321 9.40341 8.84364 9.33317 8.66683 9.33317ZM12.0002 2.6665C12.7074 2.6665 13.3857 2.94746 13.8858 3.44755C14.3859 3.94765 14.6668 4.62593 14.6668 5.33317H1.3335C1.3335 4.62593 1.61445 3.94765 2.11454 3.44755C2.61464 2.94746 3.29292 2.6665 4.00016 2.6665H12.0002Z" fill="#8F8F8F"/>
</svg>
