<svg width="32" height="32" viewBox="0 0 32 32" fill="none" xmlns="http://www.w3.org/2000/svg">
<path d="M5.33325 10.6666V7.99992C5.33325 7.29267 5.6142 6.6144 6.1143 6.1143C6.6144 5.6142 7.29267 5.33325 7.99992 5.33325H10.6666M5.33325 21.3333V23.9999C5.33325 24.7072 5.6142 25.3854 6.1143 25.8855C6.6144 26.3856 7.29267 26.6666 7.99992 26.6666H10.6666M21.3333 5.33325H23.9999C24.7072 5.33325 25.3854 5.6142 25.8855 6.1143C26.3856 6.6144 26.6666 7.29267 26.6666 7.99992V10.6666M21.3333 26.6666H23.9999C24.7072 26.6666 25.3854 26.3856 25.8855 25.8855C26.3856 25.3854 26.6666 24.7072 26.6666 23.9999V21.3333M11.4706 12.8131C11.7238 12.5551 12.0259 12.3502 12.3592 12.2103C12.6925 12.0704 13.0504 11.9983 13.4119 11.9983C13.7734 11.9983 14.1313 12.0704 14.4646 12.2103C14.7979 12.3502 15.1 12.5551 15.3532 12.8131L15.9999 13.3331L16.6666 12.8051C16.9196 12.55 17.2208 12.3476 17.5527 12.2098C17.8846 12.0719 18.2405 12.0014 18.5999 12.0023C18.9592 12.0031 19.3148 12.0754 19.646 12.2148C19.9772 12.3542 20.2775 12.5581 20.5292 12.8145C21.0446 13.3391 21.3334 14.0451 21.3334 14.7805C21.3334 15.5159 21.0446 16.2219 20.5292 16.7465L15.9999 21.3331L11.4706 16.7465C10.9548 16.2218 10.6658 15.5155 10.6658 14.7798C10.6658 14.0441 10.9548 13.3378 11.4706 12.8131Z" stroke="white" stroke-width="2.66667" stroke-linecap="round" stroke-linejoin="round"/>
</svg>
