<svg width="18" height="18" viewBox="0 0 18 18" fill="none" xmlns="http://www.w3.org/2000/svg">
<path d="M9.3125 2.76562V1.8125C9.3125 1.64 9.1725 1.5 9 1.5C8.8275 1.5 8.6875 1.64 8.6875 1.8125V2.76562C5.04187 2.93063 2.125 5.93937 2.125 9.625C2.125 11.4381 2.83562 13.0844 3.98625 14.3138C3.32562 14.5925 2.75 15.1825 2.75 16.1875C2.75 16.36 2.89 16.5 3.0625 16.5C3.235 16.5 3.375 16.36 3.375 16.1875C3.375 15.2188 4.07562 14.9019 4.48687 14.7981C5.69625 15.8544 7.2725 16.5 9 16.5C10.7275 16.5 12.3044 15.8544 13.5131 14.7981C13.9244 14.9012 14.625 15.2181 14.625 16.1875C14.625 16.36 14.765 16.5 14.9375 16.5C15.11 16.5 15.25 16.36 15.25 16.1875C15.25 15.1825 14.675 14.5925 14.0138 14.3138C15.1644 13.0844 15.875 11.4381 15.875 9.625C15.875 5.93937 12.9581 2.93063 9.3125 2.76562ZM9 15.875C5.55375 15.875 2.75 13.0712 2.75 9.625C2.75 6.17875 5.55375 3.375 9 3.375C12.4462 3.375 15.25 6.17875 15.25 9.625C15.25 13.0712 12.4462 15.875 9 15.875ZM11.6875 10.9375C11.8256 11.0413 11.8538 11.2369 11.75 11.375C11.6887 11.4569 11.595 11.5 11.5 11.5C11.435 11.5 11.3694 11.4794 11.3131 11.4375L8.81313 9.5625C8.73438 9.50375 8.68813 9.41062 8.68813 9.3125V5.5625C8.68813 5.39 8.82813 5.25 9.00063 5.25C9.17313 5.25 9.31313 5.39 9.31313 5.5625V9.15625L11.6881 10.9375H11.6875ZM2.125 4.3125C2.125 4.485 1.985 4.625 1.8125 4.625C1.64 4.625 1.5 4.485 1.5 4.3125C1.5 2.74875 2.73563 1.52375 4.3125 1.52375C4.485 1.52375 4.625 1.66375 4.625 1.83625C4.625 2.00875 4.485 2.14875 4.3125 2.14875C2.89188 2.14875 2.125 3.26375 2.125 4.3125ZM16.5 4.3125C16.5 4.485 16.36 4.625 16.1875 4.625C16.015 4.625 15.875 4.485 15.875 4.3125C15.875 3.26312 15.1081 2.14875 13.6875 2.14875C13.515 2.14875 13.375 2.00875 13.375 1.83625C13.375 1.66375 13.515 1.52375 13.6875 1.52375C15.2644 1.52375 16.5 2.74875 16.5 4.3125Z" fill="#6D6D6D"/>
</svg>
