<svg width="61" height="61" viewBox="0 0 61 61" fill="none" xmlns="http://www.w3.org/2000/svg">
<path d="M43.308 21.5275C42.3892 21.317 41.6268 20.7219 41.2226 19.8972C37.8601 13.0466 30.5956 9.38013 23.1498 10.8042C16.6186 12.0392 11.3395 17.3487 10.0125 24.0186C9.61663 26.0017 9.5583 27.9997 9.83954 29.9615C10.0125 31.1667 9.71871 32.2422 9.03538 32.9117C6.75832 35.1286 5.50208 38.1108 5.5 41.3097C5.5 47.9753 10.425 53 16.9582 53H39.3247C47.9309 53 55.1808 46.1261 55.4891 37.6729C55.7683 29.9955 50.6454 23.2045 43.308 21.5253V21.5275ZM39.3247 50.8766H16.9582C11.527 50.8766 7.58331 46.853 7.58331 41.3139C7.5854 38.7016 8.61247 36.2637 10.477 34.4485C11.6541 33.2986 12.1749 31.5535 11.9041 29.6554C11.6583 27.938 11.7104 26.1845 12.0583 24.4437C13.2166 18.6155 17.8291 13.9734 23.5332 12.8936C24.4665 12.7172 25.3977 12.6322 26.3144 12.6322C31.8081 12.6322 36.8414 15.7142 39.3622 20.8494C40.0497 22.248 41.3205 23.2513 42.8559 23.6041C49.2142 25.0579 53.6516 30.9414 53.4079 37.5964C53.1433 44.9188 46.8246 50.8766 39.3247 50.8766ZM37.306 32.0679C37.7122 32.4824 37.7122 33.1562 37.306 33.5706C37.1018 33.7789 36.8351 33.881 36.5685 33.881C36.3018 33.881 36.0351 33.7768 35.831 33.5706L30.4956 28.1272V43.4458C30.4956 44.0324 30.0289 44.5086 29.4539 44.5086C28.879 44.5086 28.4123 44.0324 28.4123 43.4458V28.1272L23.0769 33.5706C22.6707 33.9851 22.0103 33.9851 21.604 33.5706C21.1978 33.1562 21.1978 32.4824 21.604 32.0679L27.2436 26.3141C27.7498 25.7998 28.3935 25.5511 29.0519 25.4618C29.1748 25.4087 29.3102 25.3789 29.4519 25.3789C29.5935 25.3789 29.7289 25.4087 29.8519 25.4618C30.5123 25.5489 31.156 25.7976 31.6623 26.3141L37.3018 32.0679H37.306Z" fill="#B0B0B0"/>
</svg>
