<svg width="18" height="18" viewBox="0 0 18 18" fill="none" xmlns="http://www.w3.org/2000/svg">
<path d="M16.9795 8.22227C16.3869 6.92623 14.0628 2.69995 9.00015 2.69995C3.93752 2.69995 1.61343 6.92623 1.02077 8.22227C0.941207 8.39595 0.900024 8.58474 0.900024 8.77578C0.900024 8.96682 0.941207 9.15561 1.02077 9.3293C1.61343 10.624 3.93752 14.8503 9.00015 14.8503C14.0628 14.8503 16.3869 10.624 16.9795 9.32795C17.0589 9.15446 17.1 8.9659 17.1 8.77511C17.1 8.58431 17.0589 8.39576 16.9795 8.22227ZM9.00015 13.5002C4.74281 13.5002 2.75624 9.87809 2.24997 8.78253C2.75624 7.67213 4.74281 4.04999 9.00015 4.04999C13.2474 4.04999 15.2346 7.6566 15.7503 8.77511C15.2346 9.89361 13.2474 13.5002 9.00015 13.5002Z" fill="#B6BAC3"/>
<path d="M9.00021 5.40002C8.33268 5.40002 7.68014 5.59797 7.12511 5.96883C6.57008 6.33969 6.13749 6.86681 5.88204 7.48352C5.62658 8.10024 5.55975 8.77886 5.68997 9.43356C5.8202 10.0883 6.14165 10.6896 6.61366 11.1617C7.08568 11.6337 7.68706 11.9551 8.34176 12.0853C8.99647 12.2156 9.67508 12.1487 10.2918 11.8933C10.9085 11.6378 11.4356 11.2052 11.8065 10.6502C12.1774 10.0952 12.3753 9.44264 12.3753 8.77511C12.3742 7.88031 12.0183 7.02247 11.3856 6.38975C10.7529 5.75703 9.89501 5.4011 9.00021 5.40002ZM9.00021 10.8002C8.59969 10.8002 8.20817 10.6814 7.87515 10.4589C7.54213 10.2364 7.28258 9.9201 7.12931 9.55007C6.97603 9.18004 6.93593 8.77287 7.01407 8.38004C7.09221 7.98722 7.28507 7.62639 7.56828 7.34318C7.85149 7.05997 8.21232 6.86711 8.60514 6.78897C8.99796 6.71083 9.40513 6.75094 9.77516 6.90421C10.1452 7.05748 10.4615 7.31703 10.684 7.65005C10.9065 7.98307 11.0253 8.37459 11.0253 8.77511C11.0253 9.31219 10.8119 9.82727 10.4321 10.207C10.0524 10.5868 9.53729 10.8002 9.00021 10.8002Z" fill="#B6BAC3"/>
</svg>
