<svg width="41" height="41" viewBox="0 0 41 41" fill="none" xmlns="http://www.w3.org/2000/svg">
<path d="M35.8097 19.549L37.8959 22.209C38.1098 22.4816 38.025 22.8517 37.707 23.035C37.3931 23.2171 36.9584 23.1469 36.7431 22.8731L34.6597 20.2167C34.1527 20.4571 33.5777 20.6476 32.9596 20.7987L33.7819 23.9395C33.8666 24.2609 33.6305 24.5786 33.2569 24.6501C32.8916 24.7227 32.5096 24.5227 32.4277 24.2002L31.5957 21.0248C31.2735 21.0558 30.9596 21.0951 30.611 21.0951C30.2471 21.0951 29.9165 21.0558 29.5818 21.0213L28.7762 24.1966C28.6956 24.5203 28.3151 24.7215 27.9498 24.6524C27.5748 24.5822 27.3373 24.2656 27.4178 23.9443L28.2179 20.7904C27.6178 20.6404 27.0567 20.4548 26.5623 20.2191L24.4803 22.8743C24.265 23.1493 23.8316 23.2183 23.5163 23.0362C23.1983 22.8529 23.1136 22.4828 23.3275 22.2102L25.4136 19.5502C24.3066 18.7945 23.5372 17.9078 23.0691 17.2318C22.8733 16.9497 22.983 16.5844 23.3122 16.4165C23.6413 16.2487 24.0664 16.3416 24.2636 16.6248C25.1108 17.8495 27.0623 19.9037 30.611 19.9037C34.1597 19.9037 36.1097 17.8495 36.9584 16.6248C37.1556 16.3416 37.582 16.2499 37.9098 16.4165C38.2403 16.5844 38.3487 16.9497 38.1528 17.2318C37.6848 17.9078 36.9153 18.7933 35.8083 19.549H35.8097ZM19.8551 16.4165C19.526 16.2499 19.101 16.3416 18.9037 16.6248C18.0565 17.8495 16.1037 19.9037 12.5563 19.9037C9.00903 19.9037 7.05621 17.8495 6.20896 16.6248C6.01312 16.3416 5.58533 16.2487 5.25755 16.4165C4.92698 16.5844 4.81865 16.9497 5.01449 17.2318C5.48255 17.9078 6.25202 18.7945 7.35899 19.5502L5.27283 22.2102C5.05893 22.4828 5.14366 22.8529 5.46172 23.0362C5.77562 23.2183 6.21035 23.1481 6.42563 22.8743L8.50763 20.2191C9.00209 20.4548 9.56321 20.6404 10.1632 20.7904L9.36321 23.9443C9.28126 24.2656 9.52016 24.5822 9.89517 24.6524C10.2605 24.7226 10.641 24.5203 10.7216 24.1966L11.5272 21.0213C11.8633 21.0546 12.1924 21.0951 12.5563 21.0951C12.9036 21.0951 13.2189 21.0558 13.5411 21.0248L14.3731 24.2002C14.455 24.5239 14.8383 24.7227 15.2022 24.6501C15.5773 24.5775 15.812 24.2597 15.7273 23.9395L14.905 20.7999C15.5217 20.6487 16.0981 20.4595 16.6051 20.2179L18.6884 22.8743C18.9037 23.1493 19.3371 23.2183 19.6524 23.0362C19.9704 22.8529 20.0551 22.4828 19.8413 22.2102L17.7551 19.5502C18.8621 18.7945 19.6315 17.909 20.0996 17.233C20.2954 16.9509 20.1857 16.5856 19.8565 16.4177L19.8551 16.4165Z" fill="#C56F89"/>
</svg>
