<svg width="32" height="32" viewBox="0 0 32 32" fill="none" xmlns="http://www.w3.org/2000/svg">
<path d="M24.3234 13.6969C23.8101 12.7734 22.8478 12.2222 21.7501 12.2222L16.0762 12.2178L17.7245 5.77673C18.0674 4.6332 17.4702 3.78084 16.7715 3.47301C16.1275 3.18741 15.1955 3.29854 14.5633 4.1998L6.50973 16.7774C5.89382 17.642 5.832 18.71 6.34642 19.6335C6.86085 20.5569 7.82205 21.1081 8.91973 21.1081H14.5936L12.9442 27.5525C12.6012 28.6972 13.1985 29.5495 13.8984 29.8574C14.1002 29.9463 14.3288 29.9963 14.5679 29.9963C15.0952 29.9963 15.6703 29.7507 16.1042 29.1295L24.1601 16.5541C24.776 15.6895 24.8378 14.6215 24.3246 13.698L24.3234 13.6969ZM23.1791 15.9506L15.1197 28.5305C14.9016 28.8416 14.6333 28.9572 14.386 28.8483C14.1223 28.7327 13.91 28.3727 14.0698 27.8359L15.9001 20.6825C15.9421 20.518 15.9024 20.3413 15.7916 20.208C15.6808 20.0735 15.5116 19.9957 15.3332 19.9957H8.91856C8.26065 19.9957 7.6844 19.6657 7.37645 19.1123C7.06849 18.5577 7.10465 17.9176 7.4896 17.3764L15.5466 4.79768C15.7099 4.56319 15.9024 4.44095 16.0937 4.44095C16.1567 4.44095 16.2197 4.45429 16.2815 4.48096C16.5452 4.59653 16.7575 4.95659 16.5976 5.49223L14.7686 12.6423C14.7266 12.8068 14.7662 12.9835 14.8771 13.1168C14.9867 13.2513 15.1559 13.3291 15.3355 13.3291L21.7513 13.3335C22.4092 13.3335 22.9854 13.6647 23.2934 14.2181C23.6013 14.7715 23.564 15.4105 23.1802 15.9517L23.1791 15.9506Z" fill="white"/>
</svg>
