<svg width="32" height="32" viewBox="0 0 32 32" fill="none" xmlns="http://www.w3.org/2000/svg">
<path d="M12.6699 8.22206C12.6699 7.61095 13.1698 7.11095 13.7808 7.11095C14.3918 7.11095 14.8917 7.61095 14.8917 8.22206C14.8917 8.83317 14.3918 9.33317 13.7808 9.33317C13.1698 9.33317 12.6699 8.83317 12.6699 8.22206ZM29.3337 7.6665V15.4443C29.3337 18.1998 27.0896 20.4443 24.3345 20.4443H13.2254C10.4703 20.4443 8.22624 18.1998 8.22624 15.4443V7.6665C8.22624 4.91095 10.4703 2.6665 13.2254 2.6665H24.3345C27.0896 2.6665 29.3337 4.91095 29.3337 7.6665ZM10.3148 18.0221L17.1691 11.1665C18.0801 10.2554 19.5576 10.2554 20.4685 11.1665L21.6239 12.3221C22.0905 12.7776 22.8903 12.7887 23.3458 12.3221L28.2227 7.44428C28.1117 5.39984 26.4119 3.77761 24.3456 3.77761H13.2254C11.0813 3.77761 9.33716 5.52206 9.33716 7.6665V15.4443C9.33716 16.4332 9.70376 17.3332 10.3148 18.0221ZM28.2227 15.4443V9.01095L24.1235 13.1109C23.2458 13.9887 21.7017 13.9887 20.824 13.1109L19.6687 11.9554C19.191 11.4776 18.4133 11.4776 17.9468 11.9554L11.1591 18.7443C11.759 19.1221 12.4699 19.3443 13.2254 19.3443H24.3345C26.4786 19.3443 28.2227 17.5998 28.2227 15.4554V15.4443ZM23.3791 22.6998C23.0792 22.6221 22.7793 22.7998 22.7015 23.0998L22.1238 25.3665C21.5572 27.4332 19.4132 28.6554 17.3469 28.0887L6.64874 25.1887C4.58244 24.6221 3.36043 22.4776 3.927 20.4109L5.97108 12.8221C6.04885 12.5221 5.8711 12.2221 5.58226 12.1443C5.29342 12.0665 4.98237 12.2332 4.9046 12.5332L2.84941 20.1109C2.49391 21.3998 2.66055 22.7443 3.3271 23.9109C3.99365 25.0776 5.06013 25.8998 6.34879 26.2554L17.0469 29.1554C17.4913 29.2776 17.9357 29.3332 18.3689 29.3332C20.5685 29.3332 22.5793 27.8776 23.1903 25.6443L23.7791 23.3776C23.8568 23.0776 23.6791 22.7776 23.3791 22.6998Z" fill="white"/>
</svg>
