<svg width="24" height="24" viewBox="0 0 24 24" fill="none" xmlns="http://www.w3.org/2000/svg">
<path d="M20.3462 7.36145L19.4988 6.78987V3.75283C19.4988 3.52287 19.3122 3.33623 19.0822 3.33623C18.8523 3.33623 18.6656 3.52287 18.6656 3.75283V6.22746L14.0971 3.14459C12.8232 2.28472 11.1759 2.28555 9.9036 3.14459L3.65372 7.36145C2.61887 8.05885 2.00146 9.22117 2.00146 10.4693V18.7506C2.00146 20.8178 3.68371 22.5 5.7509 22.5H8.25052C8.48049 22.5 8.66712 22.3134 8.66712 22.0834V14.5845C8.66712 13.8955 9.22787 13.3347 9.91694 13.3347H14.083C14.772 13.3347 15.3328 13.8955 15.3328 14.5845V22.0834C15.3328 22.3134 15.5194 22.5 15.7494 22.5H18.249C20.3162 22.5 21.9984 20.8178 21.9984 18.7506V10.4693C21.9984 9.22034 21.381 8.05885 20.3462 7.36145ZM21.1652 18.7506C21.1652 20.3587 19.8571 21.6668 18.249 21.6668H16.166V14.5845C16.166 13.4364 15.232 12.5015 14.083 12.5015H9.91694C8.76794 12.5015 7.83392 13.4364 7.83392 14.5845V21.6668H5.7509C4.14281 21.6668 2.83467 20.3587 2.83467 18.7506V10.4693C2.83467 9.4978 3.3146 8.5946 4.11948 8.05218L10.3685 3.83532C11.3592 3.16625 12.6407 3.16625 13.6314 3.83532L19.8804 8.05218C20.6853 8.5946 21.1652 9.49863 21.1652 10.4693V18.7506Z" fill="#C56F89"/>
</svg>
