<svg width="225" height="144" viewBox="0 0 225 144" fill="none" xmlns="http://www.w3.org/2000/svg">
<path d="M44.8163 16.728V63H36.1763V42.776H14.4483V63H5.80825V16.728H14.4483V36.632H36.1763V16.728H44.8163ZM74.0248 42.808C74.0248 41.784 73.8754 40.824 73.5768 39.928C73.2994 39.0107 72.8728 38.2107 72.2968 37.528C71.7208 36.8453 70.9848 36.312 70.0888 35.928C69.2141 35.5227 68.1901 35.32 67.0168 35.32C64.7341 35.32 62.9314 35.9707 61.6088 37.272C60.3074 38.5733 59.4754 40.4187 59.1128 42.808H74.0248ZM58.9528 47.576C59.0808 49.2613 59.3794 50.7227 59.8488 51.96C60.3181 53.176 60.9368 54.1893 61.7048 55C62.4728 55.7893 63.3794 56.3867 64.4248 56.792C65.4914 57.176 66.6648 57.368 67.9448 57.368C69.2248 57.368 70.3234 57.2187 71.2408 56.92C72.1794 56.6213 72.9901 56.2907 73.6728 55.928C74.3768 55.5653 74.9848 55.2347 75.4968 54.936C76.0301 54.6373 76.5421 54.488 77.0328 54.488C77.6941 54.488 78.1848 54.7333 78.5048 55.224L80.7768 58.104C79.9021 59.128 78.9208 59.992 77.8328 60.696C76.7448 61.3787 75.6034 61.9333 74.4088 62.36C73.2354 62.7653 72.0301 63.0533 70.7928 63.224C69.5768 63.3947 68.3928 63.48 67.2408 63.48C64.9581 63.48 62.8354 63.1067 60.8728 62.36C58.9101 61.592 57.2034 60.472 55.7528 59C54.3021 57.5067 53.1608 55.672 52.3288 53.496C51.4968 51.2987 51.0807 48.76 51.0807 45.88C51.0807 43.64 51.4434 41.5387 52.1688 39.576C52.8941 37.592 53.9288 35.8747 55.2728 34.424C56.6381 32.952 58.2914 31.7893 60.2328 30.936C62.1954 30.0827 64.4034 29.656 66.8568 29.656C68.9261 29.656 70.8354 29.9867 72.5848 30.648C74.3341 31.3093 75.8381 32.28 77.0968 33.56C78.3554 34.8187 79.3368 36.376 80.0408 38.232C80.7661 40.0667 81.1287 42.168 81.1287 44.536C81.1287 45.7307 81.0008 46.5413 80.7448 46.968C80.4888 47.3733 79.9981 47.576 79.2728 47.576H58.9528ZM104.404 48.984C102.122 49.0907 100.202 49.2933 98.6443 49.592C97.0869 49.8693 95.8389 50.232 94.9003 50.68C93.9616 51.128 93.2896 51.6507 92.8843 52.248C92.4789 52.8453 92.2763 53.496 92.2763 54.2C92.2763 55.5867 92.6816 56.5787 93.4923 57.176C94.3243 57.7733 95.4016 58.072 96.7243 58.072C98.3456 58.072 99.7429 57.784 100.916 57.208C102.111 56.6107 103.274 55.7147 104.404 54.52V48.984ZM86.2923 34.744C90.0683 31.288 94.6123 29.56 99.9243 29.56C101.844 29.56 103.562 29.88 105.076 30.52C106.591 31.1387 107.871 32.0133 108.916 33.144C109.962 34.2533 110.751 35.5867 111.284 37.144C111.839 38.7013 112.116 40.408 112.116 42.264V63H108.532C107.786 63 107.21 62.8933 106.804 62.68C106.399 62.4453 106.079 61.9867 105.844 61.304L105.14 58.936C104.308 59.6827 103.498 60.344 102.708 60.92C101.919 61.4747 101.098 61.944 100.244 62.328C99.3909 62.712 98.4736 63 97.4923 63.192C96.5323 63.4053 95.4656 63.512 94.2923 63.512C92.9056 63.512 91.6256 63.3307 90.4523 62.968C89.2789 62.584 88.2656 62.0187 87.4123 61.272C86.5589 60.5253 85.8976 59.5973 85.4283 58.488C84.9589 57.3787 84.7243 56.088 84.7243 54.616C84.7243 53.784 84.8629 52.9627 85.1403 52.152C85.4176 51.32 85.8656 50.5307 86.4843 49.784C87.1243 49.0373 87.9456 48.3333 88.9483 47.672C89.9509 47.0107 91.1776 46.4347 92.6283 45.944C94.1003 45.4533 95.8069 45.0587 97.7483 44.76C99.6896 44.44 101.908 44.248 104.404 44.184V42.264C104.404 40.0667 103.935 38.4453 102.996 37.4C102.058 36.3333 100.703 35.8 98.9323 35.8C97.6523 35.8 96.5856 35.9493 95.7323 36.248C94.9003 36.5467 94.1643 36.888 93.5243 37.272C92.8843 37.6347 92.2976 37.9653 91.7643 38.264C91.2523 38.5627 90.6763 38.712 90.0363 38.712C89.4816 38.712 89.0123 38.5733 88.6283 38.296C88.2443 37.9973 87.9349 37.656 87.7003 37.272L86.2923 34.744ZM127.56 15.448V63H119.656V15.448H127.56ZM146.379 63.512C143.521 63.512 141.323 62.712 139.787 61.112C138.273 59.4907 137.515 57.2613 137.515 54.424V36.088H134.155C133.729 36.088 133.366 35.9493 133.067 35.672C132.769 35.3947 132.619 34.9787 132.619 34.424V31.288L137.899 30.424L139.563 21.464C139.67 21.0373 139.873 20.7067 140.171 20.472C140.47 20.2373 140.854 20.12 141.323 20.12H145.419V30.456H154.187V36.088H145.419V53.88C145.419 54.904 145.665 55.704 146.155 56.28C146.667 56.856 147.361 57.144 148.235 57.144C148.726 57.144 149.131 57.0907 149.451 56.984C149.793 56.856 150.081 56.728 150.315 56.6C150.571 56.472 150.795 56.3547 150.987 56.248C151.179 56.12 151.371 56.056 151.563 56.056C151.798 56.056 151.99 56.12 152.139 56.248C152.289 56.3547 152.449 56.5253 152.619 56.76L154.987 60.6C153.835 61.56 152.513 62.2853 151.019 62.776C149.526 63.2667 147.979 63.512 146.379 63.512ZM167.152 33.688C168.432 32.4933 169.84 31.5227 171.376 30.776C172.912 30.0293 174.714 29.656 176.784 29.656C178.576 29.656 180.165 29.9653 181.552 30.584C182.938 31.1813 184.09 32.0347 185.008 33.144C185.946 34.232 186.65 35.544 187.12 37.08C187.61 38.5947 187.856 40.2693 187.856 42.104V63H179.952V42.104C179.952 40.0987 179.493 38.552 178.576 37.464C177.658 36.3547 176.261 35.8 174.384 35.8C173.018 35.8 171.738 36.1093 170.544 36.728C169.349 37.3467 168.218 38.1893 167.152 39.256V63H159.248V15.448H167.152V33.688ZM224.322 30.168L206.434 72.024C206.199 72.5787 205.89 72.9947 205.506 73.272C205.143 73.5707 204.578 73.72 203.81 73.72H197.922L204.066 60.536L190.786 30.168H197.73C198.348 30.168 198.828 30.3173 199.17 30.616C199.532 30.9147 199.799 31.256 199.97 31.64L206.946 48.664C207.18 49.24 207.372 49.816 207.522 50.392C207.692 50.968 207.852 51.5547 208.002 52.152C208.194 51.5547 208.386 50.968 208.578 50.392C208.77 49.7947 208.983 49.208 209.218 48.632L215.81 31.64C215.98 31.2133 216.258 30.8613 216.642 30.584C217.047 30.3067 217.495 30.168 217.986 30.168H224.322Z" fill="url(#paint0_linear_372_288)"/>
<path d="M13 93C92.7995 172.688 178.916 126.203 212 93" stroke="url(#paint1_linear_372_288)" stroke-width="14"/>
<defs>
<linearGradient id="paint0_linear_372_288" x1="0.5" y1="38.5" x2="224.5" y2="38.5" gradientUnits="userSpaceOnUse">
<stop offset="0.35" stop-color="#C6DAF1"/>
<stop offset="0.7" stop-color="#F0DAE3"/>
</linearGradient>
<linearGradient id="paint1_linear_372_288" x1="58.6991" y1="110.506" x2="182.8" y2="110.506" gradientUnits="userSpaceOnUse">
<stop offset="0.35" stop-color="#C6DAF1"/>
<stop offset="0.7" stop-color="#F0DAE3"/>
</linearGradient>
</defs>
</svg>
