<svg width="16" height="16" viewBox="0 0 16 16" fill="none" xmlns="http://www.w3.org/2000/svg">
<path d="M9.2341 14.6663C5.61268 14.6663 2.66663 11.6758 2.66663 7.99967C2.66663 4.32356 5.61268 1.33301 9.2341 1.33301C10.3347 1.33301 11.4304 1.62245 12.4029 2.17079L12.8276 2.41079L12.4056 2.65523C10.4786 3.7719 9.2341 5.76079 9.2341 7.7219C9.2341 10.2213 11.0697 12.1802 12.8894 13.013L13.3333 13.2163L12.9321 13.4952C11.831 14.2613 10.5525 14.6658 9.23464 14.6658L9.2341 14.6663ZM9.2341 1.88856C5.91479 1.88856 3.21392 4.63023 3.21392 7.99967C3.21392 11.3691 5.91479 14.1108 9.2341 14.1108C10.2838 14.1108 11.3067 13.8302 12.2196 13.2952C10.396 12.2886 8.68681 10.263 8.68681 7.7219C8.68681 5.71412 9.8591 3.68745 11.71 2.43801C10.9312 2.07745 10.084 1.88856 9.2341 1.88856Z" fill="#262626"/>
</svg>
