<svg width="41" height="41" viewBox="0 0 41 41" fill="none" xmlns="http://www.w3.org/2000/svg">
<path d="M33.4448 18.0605V17.4146C33.4448 14.5147 31.4366 11.9203 28.6948 11.6384C25.5492 11.3148 22.8892 13.9203 22.8892 17.166V18.0716C22.3812 18.5327 21.9392 19.0535 21.5698 19.6229V17.166C21.5698 14.8369 20.6079 12.6356 18.9309 11.1148V10.9245C18.9309 8.29538 17.3977 5.86488 15.0306 5.02601C10.9007 3.56354 7.05588 6.77597 7.05588 10.9176V11.1287C5.38019 12.6495 4.41699 14.8258 4.41699 17.1674V37.3059C4.41699 37.6892 4.71255 38.0003 5.07671 38.0003C5.44088 38.0003 5.73644 37.6892 5.73644 37.3059V17.1674C5.73644 15.6772 6.2088 14.2675 7.05588 13.1231V15.7786C7.05588 18.8466 9.41901 21.334 12.3337 21.334H13.6531C16.5678 21.334 18.9309 18.8466 18.9309 15.7786V13.1244C19.778 14.2716 20.2503 15.6883 20.2503 17.1674V37.3059C20.2503 37.6892 20.5459 38.0003 20.91 38.0003C21.2742 38.0003 21.5698 37.6892 21.5698 37.3059V24.1117C21.5698 22.6215 22.0421 21.2118 22.8892 20.0674V23.4173C22.8985 26.0908 24.9924 28.2616 27.5073 28.2783H28.8267C31.3772 28.2783 33.4448 26.102 33.4448 23.4173V20.0687C34.2919 21.2159 34.7642 22.6326 34.7642 24.1117V37.3059C34.7642 37.6892 35.0598 38.0003 35.4239 38.0003C35.7881 38.0003 36.0837 37.6892 36.0837 37.3059V24.1117C36.0837 21.7826 35.1218 19.5813 33.4448 18.0605ZM13.6531 19.9451H12.3337C11.7716 19.9451 11.2398 19.8174 10.7556 19.5951C11.3705 18.9466 12.1938 18.5563 13.0699 18.5563C13.921 18.5563 14.7245 18.9216 15.3341 19.5368C14.8221 19.791 14.2561 19.9451 13.6531 19.9451ZM17.6114 15.7786C17.6114 16.941 17.1549 17.9924 16.4226 18.7479C15.5531 17.7646 14.3524 17.1674 13.0699 17.1674C11.7544 17.1674 10.5247 17.7938 9.65255 18.8229C8.87276 18.0618 8.37664 16.9827 8.37664 15.7786V10.9176C8.37664 8.23705 10.4482 6.05654 12.9947 6.05654C15.5412 6.05654 17.6128 8.23705 17.6128 10.9176V15.7786H17.6114ZM28.8267 26.8894H27.5073C26.9333 26.8894 26.4016 26.72 25.9305 26.4478C26.5362 25.852 27.3291 25.5006 28.167 25.5006C29.0048 25.5006 29.7978 25.852 30.4035 26.4478C29.9324 26.72 29.4007 26.8894 28.8267 26.8894ZM32.1253 23.4173C32.1253 24.2284 31.8482 24.9659 31.4036 25.5575C30.5446 24.6548 29.3928 24.1117 28.167 24.1117C26.9412 24.1117 25.7894 24.6548 24.9304 25.5575C24.4857 24.9659 24.2087 24.2284 24.2087 23.4173V17.1674C24.2087 14.8702 25.9846 13.0008 28.167 13.0008C30.3494 13.0008 32.1253 14.8702 32.1253 17.1674V23.4173Z" fill="#C56F89"/>
</svg>
