<svg width="24" height="25" viewBox="0 0 24 25" fill="none" xmlns="http://www.w3.org/2000/svg">
<path d="M21.9085 16.5058L19.9048 8.68083C18.9797 5.33583 15.9138 3 12.4494 3C8.79396 3 5.68576 5.50167 4.89522 9.075L3.05919 16.6325C2.8956 17.3717 3.07497 18.1367 3.54913 18.7308C4.02412 19.3258 4.73246 19.6667 5.49228 19.6667H8.38125C8.76739 21.5658 10.444 23 12.4494 23C14.4548 23 16.1314 21.5658 16.5175 19.6667H19.5062C20.2917 19.6667 21.015 19.3067 21.49 18.6792C21.9658 18.0517 22.1169 17.2567 21.9085 16.5058ZM12.4494 22.1667C10.9065 22.1667 9.61689 21.1008 9.2457 19.6667H15.6531C15.2819 21.1008 13.9923 22.1667 12.4494 22.1667ZM20.829 18.175C20.5126 18.5933 20.0301 18.8333 19.5062 18.8333H5.49311C4.98656 18.8333 4.51406 18.6067 4.19768 18.21C3.88129 17.8133 3.76172 17.3042 3.86884 16.8217L5.70403 9.26417C6.41153 6.06667 9.18591 3.83333 12.4494 3.83333C15.5418 3.83333 18.2788 5.91833 19.1026 8.89583L21.1063 16.7208C21.2467 17.2267 21.1454 17.7567 20.829 18.175Z" fill="#6D6D6D"/>
</svg>
