<svg width="14" height="14" viewBox="0 0 14 14" fill="none" xmlns="http://www.w3.org/2000/svg">
<path d="M9.96536 1.16699C9.02716 1.16699 8.26397 1.93019 8.26397 2.86838V11.1323C8.26397 12.0705 9.02716 12.8337 9.96536 12.8337C10.9036 12.8337 11.6667 12.0705 11.6667 11.1323V2.86838C11.6667 1.93019 10.9036 1.16699 9.96536 1.16699ZM11.1806 11.1323C11.1806 11.8026 10.6352 12.3475 9.96536 12.3475C9.2955 12.3475 8.75008 11.8026 8.75008 11.1323V2.86838C8.75008 2.19803 9.2955 1.6531 9.96536 1.6531C10.6352 1.6531 11.1806 2.19803 11.1806 2.86838V11.1323ZM4.61814 1.16699C3.67994 1.16699 2.91675 1.93019 2.91675 2.86838V11.1323C2.91675 12.0705 3.67994 12.8337 4.61814 12.8337C5.55633 12.8337 6.31953 12.0705 6.31953 11.1323V2.86838C6.31953 1.93019 5.55633 1.16699 4.61814 1.16699ZM5.83341 11.1323C5.83341 11.8026 5.288 12.3475 4.61814 12.3475C3.94828 12.3475 3.40286 11.8026 3.40286 11.1323V2.86838C3.40286 2.19803 3.94828 1.6531 4.61814 1.6531C5.288 1.6531 5.83341 2.19803 5.83341 2.86838V11.1323Z" fill="white"/>
</svg>
