<svg width="16" height="16" viewBox="0 0 16 16" fill="none" xmlns="http://www.w3.org/2000/svg">
<path d="M14.3889 7.72243H11.875C11.8406 7.24183 11.7195 6.78568 11.5256 6.36898L13.7262 5.15221C13.86 5.07776 13.9089 4.90886 13.8345 4.77441C13.76 4.63995 13.5906 4.59272 13.4567 4.66606L11.2573 5.88283C10.9606 5.42835 10.5728 5.03998 10.1184 4.74385L11.3345 2.54366C11.4089 2.40921 11.36 2.24031 11.2256 2.16585C11.0912 2.09252 10.9223 2.13974 10.8484 2.2742L9.63171 4.47494C9.21448 4.28103 8.75893 4.15935 8.27782 4.12546V1.61081C8.27782 1.45746 8.15337 1.33301 8.00004 1.33301C7.84671 1.33301 7.72226 1.45746 7.72226 1.61081V4.12491C7.24171 4.15935 6.7856 4.28048 6.36837 4.47438L5.15171 2.27364C5.07782 2.13974 4.90948 2.09085 4.77448 2.1653C4.64004 2.23975 4.59115 2.40865 4.6656 2.54311L5.88171 4.74329C5.42726 5.03998 5.03893 5.42779 4.74282 5.88228L2.54337 4.66551C2.40782 4.59217 2.24004 4.63939 2.1656 4.77385C2.09115 4.90831 2.14004 5.07721 2.27393 5.15166L4.47448 6.36843C4.2806 6.78568 4.15893 7.24128 4.12504 7.72187H1.61115C1.45782 7.72187 1.33337 7.84633 1.33337 7.99967C1.33337 8.15302 1.45782 8.27747 1.61115 8.27747H4.12504C4.15949 8.75807 4.2806 9.21422 4.47448 9.63092L2.27393 10.8477C2.14004 10.9221 2.09115 11.091 2.1656 11.2255C2.21615 11.3172 2.31115 11.3688 2.40893 11.3688C2.45449 11.3688 2.5006 11.3572 2.54337 11.3344L4.74282 10.1176C5.03948 10.5721 5.42726 10.9605 5.88171 11.2566L4.6656 13.4568C4.59115 13.5913 4.64004 13.7602 4.77448 13.8346C4.81726 13.8579 4.86282 13.8691 4.90837 13.8691C5.00615 13.8691 5.10115 13.8174 5.15171 13.7257L6.36837 11.525C6.7856 11.7189 7.24115 11.8405 7.72226 11.8744V14.3885C7.72226 14.5419 7.84671 14.6663 8.00004 14.6663C8.15337 14.6663 8.27782 14.5419 8.27782 14.3885V11.8744C8.75837 11.84 9.21448 11.7189 9.63171 11.525L10.8484 13.7257C10.8989 13.8174 10.9939 13.8691 11.0917 13.8691C11.1373 13.8691 11.1834 13.8574 11.2256 13.8346C11.36 13.7602 11.4089 13.5913 11.3345 13.4568L10.1184 11.2566C10.5728 10.9599 10.9606 10.5721 11.2573 10.1176L13.4567 11.3344C13.4995 11.3577 13.5456 11.3688 13.5912 11.3688C13.6889 11.3688 13.7839 11.3172 13.8345 11.2255C13.9089 11.091 13.86 10.9221 13.7262 10.8477L11.5256 9.63092C11.7195 9.21366 11.8412 8.75807 11.875 8.27747H14.3889C14.5423 8.27747 14.6667 8.15302 14.6667 7.99967C14.6667 7.84633 14.5423 7.72187 14.3889 7.72187V7.72243ZM8.00004 11.3338C6.16171 11.3338 4.66671 9.83872 4.66671 8.00023C4.66671 6.16174 6.16171 4.66662 8.00004 4.66662C9.83837 4.66662 11.3334 6.16174 11.3334 8.00023C11.3334 9.83872 9.83837 11.3338 8.00004 11.3338Z" fill="#262626"/>
</svg>
