<svg width="32" height="32" viewBox="0 0 32 32" fill="none" xmlns="http://www.w3.org/2000/svg">
<path d="M9.3335 22.6666V22.6799M9.3335 9.33325V9.34659M22.6668 9.33325V9.34659M22.6668 18.6666H18.6668V22.6666M26.6668 18.6666V18.6799M18.6668 26.6666H22.6668M22.6668 22.6666H26.6668V26.6666M5.3335 6.66659C5.3335 6.31296 5.47397 5.97383 5.72402 5.72378C5.97407 5.47373 6.31321 5.33325 6.66683 5.33325H12.0002C12.3538 5.33325 12.6929 5.47373 12.943 5.72378C13.193 5.97383 13.3335 6.31296 13.3335 6.66659V11.9999C13.3335 12.3535 13.193 12.6927 12.943 12.9427C12.6929 13.1928 12.3538 13.3333 12.0002 13.3333H6.66683C6.31321 13.3333 5.97407 13.1928 5.72402 12.9427C5.47397 12.6927 5.3335 12.3535 5.3335 11.9999V6.66659ZM18.6668 6.66659C18.6668 6.31296 18.8073 5.97383 19.0574 5.72378C19.3074 5.47373 19.6465 5.33325 20.0002 5.33325H25.3335C25.6871 5.33325 26.0263 5.47373 26.2763 5.72378C26.5264 5.97383 26.6668 6.31296 26.6668 6.66659V11.9999C26.6668 12.3535 26.5264 12.6927 26.2763 12.9427C26.0263 13.1928 25.6871 13.3333 25.3335 13.3333H20.0002C19.6465 13.3333 19.3074 13.1928 19.0574 12.9427C18.8073 12.6927 18.6668 12.3535 18.6668 11.9999V6.66659ZM5.3335 19.9999C5.3335 19.6463 5.47397 19.3072 5.72402 19.0571C5.97407 18.8071 6.31321 18.6666 6.66683 18.6666H12.0002C12.3538 18.6666 12.6929 18.8071 12.943 19.0571C13.193 19.3072 13.3335 19.6463 13.3335 19.9999V25.3333C13.3335 25.6869 13.193 26.026 12.943 26.2761C12.6929 26.5261 12.3538 26.6666 12.0002 26.6666H6.66683C6.31321 26.6666 5.97407 26.5261 5.72402 26.2761C5.47397 26.026 5.3335 25.6869 5.3335 25.3333V19.9999Z" stroke="white" stroke-width="2.66667" stroke-linecap="round" stroke-linejoin="round"/>
</svg>
