<svg width="12" height="10" viewBox="0 0 12 10" fill="none" xmlns="http://www.w3.org/2000/svg">
<path d="M11.3335 -2.67799e-09L0.666845 -4.68933e-07C0.548225 -3.38966e-05 0.431746 0.0315827 0.329421 0.0915872C0.227098 0.151592 0.142636 0.237811 0.084753 0.341349C0.0268698 0.444887 -0.00234034 0.561995 0.000136346 0.680589C0.00261399 0.799183 0.0366888 0.914969 0.0988454 1.016L5.43218 9.68267C5.49182 9.77973 5.57535 9.8599 5.67479 9.9155C5.77422 9.97111 5.88625 10.0003 6.00018 10.0003C6.11411 10.0003 6.22613 9.97111 6.32557 9.9155C6.42501 9.8599 6.50853 9.77973 6.56818 9.68267L11.9015 1.016C11.9637 0.914969 11.9977 0.799184 12.0002 0.68059C12.0027 0.561996 11.9735 0.444888 11.9156 0.34135C11.8577 0.237811 11.7733 0.151592 11.6709 0.0915877C11.5686 0.0315832 11.4521 -3.342e-05 11.3335 -2.67799e-09Z" fill="white"/>
</svg>
