<svg width="32" height="32" viewBox="0 0 32 32" fill="none" xmlns="http://www.w3.org/2000/svg">
<path d="M7.99984 27.604V26.6667C7.99984 25.2522 8.56174 23.8956 9.56193 22.8954C10.5621 21.8952 11.9187 21.3333 13.3332 21.3333H18.6665C20.081 21.3333 21.4375 21.8952 22.4377 22.8954C23.4379 23.8956 23.9998 25.2522 23.9998 26.6667V27.6093M17.5503 2.89075L28.245 10.6614C29.1703 11.3334 29.557 12.5241 29.2037 13.6108L25.1183 26.1841C24.9463 26.7138 24.611 27.1754 24.1604 27.5029C23.7099 27.8303 23.1673 28.0067 22.6103 28.0068H9.38899C8.83204 28.0067 8.28942 27.8303 7.83888 27.5029C7.38835 27.1754 7.05303 26.7138 6.88099 26.1841L2.79566 13.6108C2.62345 13.0809 2.62345 12.5101 2.79568 11.9803C2.9679 11.4504 3.30349 10.9888 3.75432 10.6614L14.449 2.89075C14.8997 2.56317 15.4425 2.38672 15.9997 2.38672C16.5568 2.38672 17.0997 2.56317 17.5503 2.89075ZM15.9998 17.3333C17.0607 17.3333 18.0781 16.9119 18.8283 16.1618C19.5784 15.4116 19.9998 14.3942 19.9998 13.3333C19.9998 12.2725 19.5784 11.2551 18.8283 10.5049C18.0781 9.75476 17.0607 9.33333 15.9998 9.33333C14.939 9.33333 13.9216 9.75476 13.1714 10.5049C12.4213 11.2551 11.9998 12.2725 11.9998 13.3333C11.9998 14.3942 12.4213 15.4116 13.1714 16.1618C13.9216 16.9119 14.939 17.3333 15.9998 17.3333Z" stroke="#E25C5C" stroke-width="2.66667" stroke-linecap="round" stroke-linejoin="round"/>
</svg>
