<svg width="18" height="18" viewBox="0 0 18 18" fill="none" xmlns="http://www.w3.org/2000/svg">
<path d="M16.9795 8.4745C16.3274 7.06014 15.3722 5.80651 14.1816 4.8024L16.2282 2.75575L15.2731 1.79993L13.0502 4.02073C11.8199 3.30908 10.4214 2.9401 9.00015 2.95218C3.93752 2.95218 1.61343 7.17846 1.02077 8.4745C0.941207 8.64818 0.900024 8.83697 0.900024 9.02801C0.900024 9.21905 0.941207 9.40784 1.02077 9.58153C1.67292 10.9959 2.62813 12.2495 3.81871 13.2536L1.77273 15.3003L2.72721 16.2547L4.95004 14.0339C6.18035 14.7456 7.57889 15.1146 9.00015 15.1025C14.0628 15.1025 16.3869 10.8762 16.9795 9.58018C17.0589 9.40669 17.1 9.21813 17.1 9.02734C17.1 8.83654 17.0589 8.64799 16.9795 8.4745ZM2.24997 9.03476C2.75624 7.92436 4.74281 4.30222 9.00015 4.30222C10.0597 4.29602 11.1053 4.5432 12.0499 5.02313L10.8585 6.21454C10.2104 5.78429 9.43344 5.5915 8.65942 5.66889C7.88539 5.74628 7.16198 6.08908 6.61194 6.63913C6.06189 7.18917 5.71909 7.91259 5.6417 8.68661C5.5643 9.46063 5.75709 10.2376 6.18735 10.8857L4.78399 12.289C3.70421 11.4097 2.83783 10.2971 2.24997 9.03476ZM11.0252 9.02734C11.0252 9.56441 10.8118 10.0795 10.4321 10.4593C10.0523 10.839 9.53722 11.0524 9.00015 11.0524C8.69943 11.0512 8.40289 10.982 8.13275 10.8499L10.8227 8.15994C10.9548 8.43008 11.024 8.72663 11.0252 9.02734ZM6.97509 9.02734C6.97509 8.49026 7.18845 7.97518 7.56822 7.59541C7.94799 7.21564 8.46307 7.00229 9.00015 7.00229C9.30086 7.00345 9.5974 7.07268 9.86754 7.20479L7.1776 9.89473C7.04549 9.62459 6.97626 9.32805 6.97509 9.02734ZM9.00015 13.7525C7.94064 13.7587 6.89501 13.5115 5.95042 13.0315L7.14182 11.8401C7.78989 12.2704 8.56685 12.4632 9.34087 12.3858C10.1149 12.3084 10.8383 11.9656 11.3884 11.4155C11.9384 10.8655 12.2812 10.1421 12.3586 9.36806C12.436 8.59404 12.2432 7.81708 11.8129 7.16901L13.2156 5.76633C14.2975 6.64642 15.1644 7.76172 15.7503 9.02734C15.2346 10.1458 13.2474 13.7525 9.00015 13.7525Z" fill="#B6BAC3"/>
</svg>
