<svg width="20" height="20" viewBox="0 0 20 20" fill="none" xmlns="http://www.w3.org/2000/svg">
<path d="M15.75 5.83309C16.5037 7.08407 16.8258 8.54795 16.6667 9.99976V10.8331C16.6657 11.7105 16.8956 12.5727 17.3333 13.3331M6.66665 9.16642C6.66665 8.28237 7.01784 7.43452 7.64296 6.8094C8.26808 6.18428 9.11592 5.83309 9.99998 5.83309C10.884 5.83309 11.7319 6.18428 12.357 6.8094C12.9821 7.43452 13.3333 8.28237 13.3333 9.16642V9.99976C13.3333 11.8028 13.9181 13.5573 15 14.9998M9.99999 9.16642V10.8331C9.99733 13.2159 10.7244 15.5424 12.0833 17.4998M6.66665 12.4998C6.87057 14.2413 7.37825 15.9336 8.16665 17.4998M4.08336 15.833C3.52107 13.9415 3.26781 11.9718 3.33336 9.99962V9.16629C3.33017 7.99451 3.63588 6.84258 4.2197 5.82659C4.80352 4.81059 5.64481 3.96643 6.65881 3.37915C7.67281 2.79188 8.82369 2.48224 9.99548 2.48145C11.1673 2.48065 12.3186 2.78873 13.3334 3.37462" stroke="white" stroke-width="1.66667" stroke-linecap="round" stroke-linejoin="round"/>
</svg>
