<svg width="32" height="32" viewBox="0 0 32 32" fill="none" xmlns="http://www.w3.org/2000/svg">
<path d="M29.1712 28.3845L21.477 20.6901L24.4058 15.889C24.9924 15.0246 25.0513 13.9568 24.5624 13.0335C24.0736 12.1102 23.1569 11.5591 22.1114 11.5591L16.7072 11.5546L18.2771 5.11472C18.6038 3.9714 18.0349 3.11918 17.3694 2.81141C16.7527 2.52586 15.8683 2.63697 15.2672 3.53807L11.1207 10.3324L3.61654 2.82919C3.39877 2.61252 3.04767 2.61252 2.8299 2.82919C2.61213 3.04585 2.61324 3.39807 2.8299 3.61584L28.3845 29.1711C28.4934 29.28 28.6356 29.3334 28.7778 29.3334C28.9201 29.3334 29.0623 29.2789 29.1712 29.1711C29.3878 28.9545 29.3878 28.6011 29.1712 28.3845ZM16.2027 4.13695C16.4094 3.82584 16.665 3.71029 16.9016 3.82029C17.1527 3.93584 17.3549 4.29584 17.2027 4.83139L15.4606 11.9802C15.4206 12.1446 15.4583 12.3213 15.5639 12.4546C15.6683 12.5891 15.8294 12.6669 16.0005 12.6669L22.1114 12.6713C22.7381 12.6713 23.2869 13.0024 23.5803 13.5557C23.8736 14.1091 23.838 14.7479 23.4725 15.2891L20.6693 19.8835L11.9296 11.1435L16.2039 4.13806L16.2027 4.13695ZM19.706 23.5945L16.7338 28.4645C16.3205 29.0867 15.7717 29.3311 15.2706 29.3311C15.0428 29.3311 14.825 29.2811 14.6328 29.1922C13.9662 28.8845 13.3973 28.0323 13.724 26.8878L15.295 20.4446H9.89076C8.84635 20.4446 7.92972 19.8935 7.44085 18.9712C6.95086 18.0479 7.00864 16.979 7.59528 16.1146L8.96523 13.868C9.12523 13.6069 9.46744 13.5235 9.72854 13.6835C9.99075 13.8435 10.0741 14.1846 9.91409 14.448L8.52969 16.7168C8.16304 17.2579 8.1286 17.8979 8.42192 18.4524C8.71524 19.0068 9.26411 19.3357 9.89076 19.3357H16.0016C16.1716 19.3357 16.3327 19.4135 16.4383 19.5479C16.5438 19.6812 16.5816 19.8568 16.5416 20.0223L14.7984 27.1745C14.645 27.7111 14.8484 28.0711 15.0995 28.1867C15.3339 28.2956 15.5905 28.18 15.7983 27.8689L18.7593 23.0179C18.9193 22.7568 19.2604 22.6723 19.5237 22.8334C19.7848 22.9934 19.8682 23.3345 19.7082 23.5979L19.706 23.5945Z" fill="#262626"/>
</svg>
