<svg width="25" height="25" viewBox="0 0 25 25" fill="none" xmlns="http://www.w3.org/2000/svg">
<path d="M21.3249 10.7373H20.6V10.7H12.5V14.3H17.5864C16.8443 16.3956 14.8503 17.9 12.5 17.9C9.51785 17.9 7.1 15.4822 7.1 12.5C7.1 9.51785 9.51785 7.1 12.5 7.1C13.8765 7.1 15.1289 7.6193 16.0824 8.46755L18.6281 5.9219C17.0207 4.42385 14.8706 3.5 12.5 3.5C7.52975 3.5 3.5 7.52975 3.5 12.5C3.5 17.4703 7.52975 21.5 12.5 21.5C17.4703 21.5 21.5 17.4703 21.5 12.5C21.5 11.8966 21.4379 11.3075 21.3249 10.7373Z" fill="#FFC107"/>
<path d="M4.5376 8.31095L7.49455 10.4795C8.29465 8.4986 10.2323 7.1 12.4999 7.1C13.8764 7.1 15.1288 7.6193 16.0823 8.46755L18.628 5.9219C17.0206 4.42385 14.8705 3.5 12.4999 3.5C9.043 3.5 6.0451 5.45165 4.5376 8.31095Z" fill="#FF3D00"/>
<path d="M12.5 21.5C14.8247 21.5 16.937 20.6103 18.5341 19.1636L15.7486 16.8065C14.8146 17.5168 13.6734 17.9009 12.5 17.9C10.1591 17.9 8.17149 16.4073 7.42269 14.3243L4.48779 16.5855C5.97729 19.5002 9.00219 21.5 12.5 21.5Z" fill="#4CAF50"/>
<path d="M21.325 10.7374H20.6V10.7H12.5V14.3H17.5864C17.2314 15.2974 16.592 16.1689 15.7472 16.807L15.7485 16.8061L18.534 19.1632C18.3369 19.3423 21.5 17 21.5 12.5C21.5 11.8966 21.4379 11.3075 21.325 10.7374Z" fill="#1976D2"/>
</svg>
