<svg width="20" height="20" viewBox="0 0 20 20" fill="none" xmlns="http://www.w3.org/2000/svg">
<path d="M8.33333 6.66683V5.00016C8.33333 4.55814 8.50893 4.13421 8.82149 3.82165C9.13405 3.50909 9.55797 3.3335 10 3.3335H15.8333C16.2754 3.3335 16.6993 3.50909 17.0118 3.82165C17.3244 4.13421 17.5 4.55814 17.5 5.00016V15.0002C17.5 15.4422 17.3244 15.8661 17.0118 16.1787C16.6993 16.4912 16.2754 16.6668 15.8333 16.6668H10C9.55797 16.6668 9.13405 16.4912 8.82149 16.1787C8.50893 15.8661 8.33333 15.4422 8.33333 15.0002V13.3335M12.5 10.0002H2.5M2.5 10.0002L5 7.50016M2.5 10.0002L5 12.5002" stroke="#E25C5C" stroke-width="1.66667" stroke-linecap="round" stroke-linejoin="round"/>
</svg>
