<svg width="238" height="292" viewBox="0 0 238 292" fill="none" xmlns="http://www.w3.org/2000/svg">
<path d="M147.142 223.558C147.057 223.946 146.715 224.211 146.334 224.211C146.278 224.211 146.22 224.205 146.162 224.192C132.52 221.318 123.352 221.283 123.261 221.283C122.803 221.283 122.432 220.912 122.432 220.454C122.432 219.996 122.803 219.625 123.261 219.625C123.354 219.625 132.679 219.658 146.503 222.57C146.721 222.615 146.899 222.744 147.015 222.912C157.424 215.725 167.027 205.648 167.027 192.793C167.027 177.32 159.608 168.368 159.608 168.368L111.182 169.199C111.182 169.199 42.0902 172.823 33.7162 196.146C25.9369 217.814 72.5505 243.626 93.4368 253.938L96.539 247.657C83.2745 243.129 76.5479 237.55 76.5479 231.07C76.5479 225.672 79.3558 219.432 84.9136 212.42C78.6823 207.247 66.7854 203.932 66.6632 203.899C66.2218 203.776 65.9627 203.32 66.0829 202.879C66.2052 202.438 66.6611 202.179 67.1025 202.299C67.6205 202.442 79.4511 205.737 85.956 211.131C89.2757 207.127 93.4679 202.881 98.5284 198.403C109.3 188.868 120.219 181.761 120.329 181.69C120.712 181.439 121.226 181.549 121.475 181.935C121.723 182.318 121.613 182.832 121.23 183.081C120.799 183.36 78.2057 211.212 78.2057 231.07C78.2057 236.779 84.5883 241.844 97.1752 246.123C97.6063 246.27 97.8363 246.734 97.6954 247.165C118.828 254.153 152.387 257.454 178.35 258.298L182.401 235.517C169.373 229.348 157.099 225.709 147.142 223.558Z" fill="white"/>
<path d="M121.638 36.8718C115.042 41.3562 105.029 65.9395 114.122 70.629C118.387 72.8277 124.444 70.8093 129.169 68.4511" stroke="white" stroke-width="1.65781" stroke-linecap="round" stroke-linejoin="round"/>
<path d="M93.0845 129.28C91.1884 126.734 89.628 123.511 89.2094 119.58L100.516 92.5163C102.685 87.3253 107.383 83.6263 112.939 82.7352L118.393 81.8628C118.393 81.8628 118.839 94.027 125.29 95.7097C133.916 97.9602 143.167 84.1672 143.167 84.1672C143.167 84.1672 161.272 88.9106 166.194 93.3514C183.433 108.91 155.34 159.011 145.873 163.121C137 166.973 63.7495 135.874 63.7495 135.874C56.3038 133.383 39.2408 132.984 37.9954 124.34" stroke="white" stroke-width="1.65781" stroke-linecap="round" stroke-linejoin="round"/>
<path d="M164.992 135.056L159.608 168.372L111.182 169.203L106.529 152.813" stroke="white" stroke-width="1.65781" stroke-linecap="round" stroke-linejoin="round"/>
<path d="M118.393 81.8627L120.778 71.6237" stroke="white" stroke-width="1.65781" stroke-linecap="round" stroke-linejoin="round"/>
<path d="M136.325 58.558C136.735 60.0791 137.837 62.3751 140.703 61.6913C144.895 60.6925 146.75 53.5784 145.482 50.7124C144.214 47.8465 139.3 50.7311 139.3 50.7311" stroke="white" stroke-width="1.65781" stroke-linecap="round" stroke-linejoin="round"/>
<path d="M143.167 84.1671L139.344 61.8115" stroke="white" stroke-width="1.65781" stroke-linecap="round" stroke-linejoin="round"/>
<path d="M182.399 235.517C185.4 236.939 188.44 238.493 191.503 240.197C191.503 240.197 201.095 232.875 203.967 236.553C206.85 240.286 210.014 249.671 210.014 249.671C210.014 249.671 231.715 276.617 227.869 279.126C224.021 281.636 191.503 258.524 191.503 258.524C187.449 258.524 183.033 258.451 178.373 258.3" stroke="white" stroke-width="1.65781" stroke-linecap="round" stroke-linejoin="round"/>
<path d="M143.167 110.394L134.441 138.286C134.441 138.286 87.0729 128.244 71.3652 124.545C68.8764 123.959 61.7416 108.141 57.5535 110.425C54.814 111.919 62.4213 124.34 62.4213 124.34" stroke="white" stroke-width="1.65781" stroke-linecap="round" stroke-linejoin="round"/>
<path d="M137.365 128.934L164.992 135.056" stroke="white" stroke-width="1.65781" stroke-linecap="round" stroke-linejoin="round"/>
<path d="M111.667 54.828C108.521 53.6344 105.547 52.3537 102.897 50.9902C102.897 50.9902 112.135 17.95 137.645 25.6547C163.154 33.3593 153.74 65.7136 153.74 65.7136C153.74 65.7136 147.768 64.719 139.522 62.8601L139.344 61.8116L141.255 61.5173L143.839 59.3974L145.279 56.49L145.791 51.8336L144.833 49.8795L142.543 49.4464L139.302 50.7353C139.302 50.7353 139.147 48.6444 136.638 45.7909C134.126 42.9374 118.959 39.5388 118.959 39.5388L114.984 46.0706L112.048 53.5184L111.667 54.828Z" fill="white"/>
<ellipse cx="143.17" cy="22.1491" rx="9.06655" ry="8.52567" transform="rotate(-57.168 143.17 22.1491)" fill="white"/>
<path d="M62.4192 124.34H29.2919L24.8282 88.981H66.8828L63.7392 114.544" stroke="white" stroke-width="1.65781" stroke-linecap="round" stroke-linejoin="round"/>
<path fill-rule="evenodd" clip-rule="evenodd" d="M93.4369 253.94V253.94C72.5484 243.63 25.9369 217.816 33.7162 196.15C42.0882 172.827 111.182 169.203 111.182 169.203L159.609 168.372C159.609 168.372 167.027 177.324 167.027 192.798C167.027 205.932 157 216.169 146.331 223.384V223.384C156.428 225.51 169.019 229.182 182.401 235.521L178.35 258.302C161.37 257.751 141.138 256.149 123.259 253.152C123.259 253.152 126.463 289.744 122.117 290.87C114.642 292.805 103.172 258.526 103.172 258.526C103.172 258.526 99.3283 256.849 93.4369 253.94V253.94Z" stroke="white" stroke-width="1.65781" stroke-linecap="round" stroke-linejoin="round"/>
<path d="M45.8556 88.981C45.8556 88.981 47.3393 36.1154 39.618 15.6912" stroke="white" stroke-width="1.65781" stroke-linecap="round" stroke-linejoin="round"/>
<path d="M35.3201 88.9811C35.3201 88.9811 36.8785 66.5095 22.1509 49.4443" stroke="white" stroke-width="1.65781" stroke-linecap="round" stroke-linejoin="round"/>
<path d="M24.7537 52.7393C24.7537 52.7393 14.2742 54.2997 12.405 40.8486C12.405 40.8486 27.1368 39.3483 24.7537 52.7393Z" fill="white" stroke="white" stroke-width="1.65781" stroke-linecap="round" stroke-linejoin="round"/>
<path d="M31.5632 65.7136C31.5632 65.7136 24.8573 61.1484 16.1393 64.3873C16.1414 64.3873 22.3271 74.2638 31.5632 65.7136Z" fill="white" stroke="white" stroke-width="1.65781" stroke-linecap="round" stroke-linejoin="round"/>
<path d="M34.4601 76.7424C34.4601 76.7424 35.8195 65.5459 47.9008 66.2111C47.8987 66.2111 47.2978 77.3931 34.4601 76.7424Z" fill="white" stroke="white" stroke-width="1.65781" stroke-linecap="round" stroke-linejoin="round"/>
<path d="M27.6921 0.828857C27.6921 0.828857 24.965 23.1161 42.7948 28.4128C42.7927 28.4128 56.5319 11.4554 27.6921 0.828857Z" fill="white" stroke="white" stroke-width="1.65781" stroke-linecap="round" stroke-linejoin="round"/>
<path d="M45.6359 60.1227L57.798 48.1035" stroke="white" stroke-width="1.65781" stroke-linecap="round" stroke-linejoin="round"/>
<path d="M54.4099 51.5001C54.4099 51.5001 50.7731 38.7826 66.5907 38.4075C66.5907 38.4095 69.8773 50.6442 54.4099 51.5001Z" fill="white" stroke="white" stroke-width="1.65781" stroke-linecap="round" stroke-linejoin="round"/>
<path d="M44.7076 44.2637L37.3137 40.7988" stroke="white" stroke-width="1.65781" stroke-linecap="round" stroke-linejoin="round"/>
<path d="M26.6643 33.5002C26.6643 33.5002 39.7403 31.7616 39.616 41.8784C39.616 41.8784 32.2698 48.8184 26.6643 33.5002Z" fill="white" stroke="white" stroke-width="1.65781" stroke-linecap="round" stroke-linejoin="round"/>
<path d="M46.0648 81.0753C46.0648 81.0753 49.7016 69.8498 57.798 71.4766C57.798 71.4766 57.1162 81.4089 46.0648 81.0753Z" fill="white" stroke="white" stroke-width="1.65781" stroke-linecap="round" stroke-linejoin="round"/>
<path d="M56.9567 88.9811C56.9567 88.9811 61.3167 72.5894 71.9039 63.2249" stroke="white" stroke-width="1.65781" stroke-linecap="round" stroke-linejoin="round"/>
<path d="M68.9469 66.184C68.9469 66.184 66.0187 55.0953 79.0968 55.632C79.0968 55.63 82.0871 66.3602 68.9469 66.184Z" fill="white" stroke="white" stroke-width="1.65781" stroke-linecap="round" stroke-linejoin="round"/>
<path d="M61.843 76.7713L69.3529 75.3663" stroke="white" stroke-width="1.65781" stroke-linecap="round" stroke-linejoin="round"/>
<circle cx="212.698" cy="160.02" r="24.1067" stroke="white" stroke-width="1.65781" stroke-linecap="round" stroke-linejoin="round"/>
<path d="M187.089 55.5802L172.606 71.7998L193.888 76.222L187.089 55.5802Z" fill="white" stroke="white" stroke-width="1.65781" stroke-linecap="round" stroke-linejoin="round"/>
<rect x="6.42969" y="172.081" width="18.4417" height="18.4417" transform="rotate(-107.679 6.42969 172.081)" fill="white" stroke="white" stroke-width="1.65786" stroke-linecap="round" stroke-linejoin="round"/>
</svg>
