<svg width="297" height="341" viewBox="0 0 297 341" fill="none" xmlns="http://www.w3.org/2000/svg">
<path d="M87.8045 269.157C68.8878 280.437 48.1451 291.582 48.1451 291.582L50.313 321.402C50.4706 323.561 47.5923 324.433 46.5302 322.546L29.2842 291.956C27.451 288.704 27.8632 284.651 30.3172 281.838C37.1724 273.982 51.2733 258.058 61.7464 247.814" stroke="white" stroke-width="2" stroke-linecap="round" stroke-linejoin="round"/>
<path d="M146.821 323.581L170.144 335.655C172.283 336.763 171.497 340 169.089 340H130.935C127.984 340 125.712 337.387 126.117 334.46L128.062 320.419C128.062 320.419 126.777 294.129 128.254 272.7" stroke="white" stroke-width="2" stroke-linecap="round" stroke-linejoin="round"/>
<path d="M146.821 323.58C146.821 323.58 176.296 244.502 176.243 230.12C176.201 218.742 157.765 151.566 157.765 151.566" stroke="white" stroke-width="2" stroke-linecap="round" stroke-linejoin="round"/>
<path d="M44.9932 265.373L59.8287 285.183" stroke="white" stroke-width="2" stroke-linecap="round" stroke-linejoin="round"/>
<path d="M108.889 165.447C103.756 162.662 101.995 154.946 101.995 154.944C105.24 154.091 108.639 153.798 112.08 154.101C119.939 154.788 127.059 158.502 132.129 164.554C137.2 170.606 139.615 178.273 138.926 186.144L137.806 198.976C137.801 199.022 137.799 199.066 137.792 199.112L126.416 197.978L127.537 185.145C127.959 180.322 126.479 175.623 123.371 171.912C120.262 168.204 115.9 165.928 111.081 165.506C110.999 165.498 110.919 165.496 110.836 165.491V165.486C110.836 165.486 110.836 165.489 110.836 165.491L108.889 165.447C103.756 162.662 101.995 154.946 101.995 154.944Z" fill="white"/>
<path d="M80.0861 180.99L78.9658 193.823C78.9609 193.869 78.9585 193.915 78.9561 193.959L90.3555 194.818L91.4758 181.986C91.8978 177.163 94.1699 172.791 97.8728 169.678C98.4208 169.216 98.9955 168.796 99.5847 168.408C97.1695 167.363 94.8707 165.957 93.1903 164.869C93.1903 164.869 91.7499 163.791 89.3735 161.928C84.0096 166.921 80.7287 173.632 80.0861 180.99Z" fill="white"/>
<path d="M127.702 309.551L151.318 311.302" stroke="white" stroke-width="2" stroke-linecap="round" stroke-linejoin="round"/>
<path d="M167.036 122.158C167.036 122.158 178.739 136.749 187.11 138.51C205.65 142.41 256.535 113.576 256.535 113.576" stroke="white" stroke-width="2" stroke-linecap="round" stroke-linejoin="round"/>
<path d="M95.3506 102.482V141.441C127.139 144.062 130.233 156.884 157.768 151.568L174.863 97.3191" stroke="white" stroke-width="2" stroke-linecap="round" stroke-linejoin="round"/>
<path d="M148.151 32.7606C139.593 40.09 136.875 30.0674 136.875 23.5515C136.875 16.3169 138.558 12.2345 141.659 9.61648C145.161 6.66092 149.504 8.54791 153.457 6.97178C160.03 4.35136 161.134 -3.10917 169.558 1.43709C182.335 8.3342 169.228 16.7273 159.555 17.7521C156.177 18.1091 154.965 20.9263 153.619 24.2194L151.718 22.9687L149.092 23.571L147.365 26.1355L146.764 29.2392L147.212 31.4954L148.151 32.7606Z" fill="white"/>
<path d="M153.058 32.1171C152.102 32.8821 149.193 34.0332 147.711 32.2847C145.545 29.7274 147.456 23.9717 149.767 23.2043C153.191 22.0653 154.387 25.5284 154.387 25.5284" stroke="white" stroke-width="2" stroke-linecap="round" stroke-linejoin="round"/>
<path d="M170.845 38.6499C171.725 32.5372 169.931 20.1564 167.727 15.4086" stroke="white" stroke-width="2" stroke-linecap="round" stroke-linejoin="round"/>
<path d="M146.8 29.9459C146.894 30.8372 147.181 31.6581 147.712 32.2846C148.8 33.5693 150.663 33.2852 151.953 32.7412C151.953 32.7412 161.514 43.966 170.845 38.6499C169.703 48.4783 163.842 51.6257 158.556 49.6707C151.014 46.9191 143.747 35.2378 146.8 29.9459Z" fill="white" stroke="white" stroke-width="2" stroke-linecap="round" stroke-linejoin="round"/>
<path d="M135.726 49.9427L142.995 34.0187" stroke="white" stroke-width="2" stroke-linecap="round" stroke-linejoin="round"/>
<path d="M157.528 52.6845L156.769 48.8499" stroke="white" stroke-width="2" stroke-linecap="round" stroke-linejoin="round"/>
<path d="M101.995 154.946C101.995 154.946 103.756 162.664 108.889 165.45" stroke="white" stroke-width="2" stroke-linecap="round" stroke-linejoin="round"/>
<path d="M113 87.8912C113 87.8912 97.0439 103.939 73.2822 115.975C73.2822 115.975 90.887 140.739 97.5507 149.436C98.8092 151.077 104.045 151.08 106.266 154.157" stroke="white" stroke-width="2" stroke-linecap="round" stroke-linejoin="round"/>
<path d="M110.842 165.489C110.842 165.489 110.669 167.699 108.89 168.92C104.651 171.827 97.1773 167.456 93.1883 164.872C93.1883 164.872 43.6062 127.72 45.745 112.604C47.5685 99.7159 89.9219 59.839 103.865 54.603C110.791 52.0021 135.726 49.9451 135.726 49.9451C135.726 49.9451 137.887 65.5121 147.824 65.0677C155.251 64.735 157.528 52.6869 157.528 52.6869L173.637 58.5786C182.284 61.6847 196.902 112.136 196.902 112.136C196.902 112.136 227.535 107.354 240.109 103.84C244.42 102.635 245.584 94.4193 250.014 94.5067C254.445 94.5965 264.481 97.6541 263.882 100.408C263.286 103.162 251.236 100.556 251.236 100.556C251.236 100.556 253.07 107.376 247.885 110.659" stroke="white" stroke-width="2" stroke-linecap="round" stroke-linejoin="round"/>
<path d="M255.077 101.331C255.109 102.205 255.295 103.118 255.695 104.046C257.589 108.439 264.668 107.886 264.668 107.886C264.668 107.886 268.356 103.293 266.203 98.5382C263.96 93.5863 259.418 92.8748 259.418 92.8748C259.418 92.8748 257.66 94.429 256.794 95.772" stroke="white" stroke-width="2" stroke-linecap="round" stroke-linejoin="round"/>
<path d="M112.999 87.8912L95.3506 116.747V102.482L112.999 87.8912Z" fill="white"/>
<path d="M193.884 102.319L170.658 110.659" stroke="white" stroke-width="2" stroke-linecap="round" stroke-linejoin="round"/>
<path d="M84.1498 109.913L64.4668 86.5629" stroke="white" stroke-width="2" stroke-linecap="round" stroke-linejoin="round"/>
<path fill-rule="evenodd" clip-rule="evenodd" d="M268.977 120.32C280.355 118.7 291.694 125.298 295.624 136.567C300.091 149.375 293.321 163.437 280.532 167.912C267.743 172.388 253.7 165.605 249.233 152.797C245.303 141.528 250.073 129.296 259.983 123.467L252.049 100.721C252.747 100.857 253.836 101.054 255.08 101.236C255.102 102.14 255.284 103.084 255.698 104.049C257.524 108.282 264.164 107.92 264.641 107.888L268.977 120.32ZM258.225 149.65C260.96 157.494 269.559 161.644 277.389 158.905C285.222 156.165 289.366 147.556 286.628 139.712C283.893 131.868 275.297 127.715 267.467 130.457C259.636 133.199 255.49 141.808 258.225 149.65Z" fill="#EB9E74"/>
<path d="M256.793 95.7721C257.627 94.4777 259.286 92.9938 259.407 92.8845L251.96 71.5375L260.387 68.5892L257.717 60.932L254.036 62.2191L252.22 57.0123L257.698 55.0961L256.645 52.0799L254.846 52.7089L253.808 49.7339L255.608 49.1049L254.555 46.0886L244.329 49.6659L243.044 45.9818C242.176 43.4949 239.46 42.1835 236.977 43.0505C234.494 43.9199 233.184 46.6399 234.05 49.1268L249.88 94.5068C249.924 94.5068 249.967 94.5019 250.011 94.5019C251.742 94.5408 254.322 95.0289 256.793 95.7721Z" fill="#EB9E74"/>
<path d="M117.544 228.403C118.116 221.841 113.271 216.056 106.719 215.483C100.167 214.91 94.3905 219.762 93.8182 226.324C93.4351 230.722 95.4866 234.766 98.8523 237.131L98.1782 244.852C97.8921 248.133 100.315 251.025 103.591 251.312C106.867 251.598 109.755 249.172 110.041 245.891L110.715 238.171C114.437 236.427 117.16 232.799 117.544 228.403Z" fill="white"/>
<path d="M92.4094 194.998C85.302 204.834 82.2514 256.985 99.8369 262.854C119.687 269.482 149.082 208.855 135.643 206.371C123.972 204.212 114.173 253.742 123.031 272.243" stroke="white" stroke-width="2" stroke-linecap="round" stroke-linejoin="round"/>
<path d="M63.1172 260.479C74.2621 259.765 99.3307 206.405 96.7409 195.377" stroke="white" stroke-width="2" stroke-linecap="round" stroke-linejoin="round"/>
<path d="M63.7998 225.926C67.6215 219.157 72.5731 208.069 72.8593 195.673" stroke="white" stroke-width="2" stroke-linecap="round" stroke-linejoin="round"/>
<path fill-rule="evenodd" clip-rule="evenodd" d="M129.372 272.797L74.4723 267.986C66.6108 267.296 60.7934 260.355 61.4821 252.482L65.4541 207.005C66.1428 199.132 73.0732 193.305 80.9347 193.995L135.835 198.806C143.696 199.496 149.513 206.437 148.825 214.31L144.853 259.787C144.167 267.661 137.234 273.487 129.372 272.797Z" stroke="white" stroke-width="2" stroke-linecap="round" stroke-linejoin="round"/>
<path d="M220.723 259.918C225.394 252.266 228.992 244.201 230.549 238.039C230.442 238.139 230.338 238.236 230.231 238.336C221.126 246.862 212.352 257.218 209.738 260.489C209.396 260.911 208.919 261.455 208.366 262.089C206.736 263.954 203.928 267.167 202.068 270.298C203.329 272.532 204.828 274.618 206.528 276.525C210.64 273.994 215.793 267.998 220.723 259.918Z" fill="white"/>
<path d="M197.522 253.653C205.068 243.632 211.834 236.56 217.629 232.631L217.782 232.527C218.657 231.927 221.317 230.103 223.992 228.651C227.85 226.557 230.122 226.064 231.364 227.05C232.761 228.15 233.413 230.132 233.313 232.959C243.219 224.471 249.982 221.722 253.913 224.551C256.399 226.346 256.934 230.984 256.692 235.883C258.055 234.826 259.282 234.013 260.317 233.493C261.37 232.964 262.369 232.497 263.314 232.097C256.736 223.028 245.967 217.12 233.784 217.12C213.73 217.12 197.5 233.126 197.5 252.902C197.5 253.157 197.505 253.412 197.51 253.667C197.515 253.662 197.519 253.657 197.522 253.653Z" fill="white"/>
<path d="M230.163 228.573C229.751 228.245 226.929 228.609 218.878 234.127L218.72 234.236C211.399 239.2 203.451 248.866 197.701 256.676C198.138 260.795 199.282 264.705 201.014 268.287C202.835 265.465 205.194 262.767 206.904 260.809C207.444 260.193 207.91 259.658 208.225 259.27C208.315 259.158 217.828 247.287 228.902 236.917C229.683 236.186 230.447 235.484 231.196 234.812C231.643 231.662 231.279 229.452 230.163 228.573Z" fill="white"/>
<path d="M229.413 278.13C229.302 280.716 230.107 282.501 231.88 283.592C235.209 285.639 238.917 281.54 241.443 277.744C245.956 270.958 250.491 259.243 252.993 247.899C253.578 245.25 254.021 242.751 254.325 240.453C250.593 243.887 246.296 248.523 242.396 253.429C234.389 263.5 229.656 272.503 229.413 278.13Z" fill="white"/>
<path d="M264.435 233.729C263.426 234.146 262.345 234.647 261.188 235.227C259.922 235.861 258.31 237.01 256.493 238.537C256.12 242.306 255.41 245.956 254.888 248.315C252.337 259.877 247.693 271.85 243.059 278.82C239.337 284.415 236.197 286.101 233.762 286.101C232.642 286.101 231.672 285.744 230.865 285.248C228.471 283.776 227.332 281.353 227.477 278.047C227.632 274.504 229.577 266.439 240.879 252.22C245.463 246.454 250.475 241.16 254.641 237.568C255.15 231.577 254.527 227.388 252.781 226.127C249.612 223.844 242.645 227.276 233.008 235.808C230.811 248.791 217.896 271.442 207.884 277.965C214.465 284.58 223.636 288.685 233.789 288.685C253.782 288.685 270.073 272.678 270.073 252.902C270.071 245.845 268.005 239.271 264.435 233.729Z" fill="white"/>
<path d="M40.0895 166.55L20.5447 163.092L1 159.633C1 159.633 4.40942 168.986 7.79701 178.285C11.2064 187.637 14.5771 196.975 14.5771 196.975L27.3418 181.743L40.0895 166.55Z" fill="white" stroke="white" stroke-width="2" stroke-linecap="round" stroke-linejoin="round"/>
<ellipse cx="52.8786" cy="40.0828" rx="10.6647" ry="10.6808" stroke="white" stroke-width="2" stroke-linecap="round" stroke-linejoin="round"/>
</svg>
