<svg width="32" height="32" viewBox="0 0 32 32" fill="none" xmlns="http://www.w3.org/2000/svg">
<path d="M8 5.33346V26.6668C7.99993 26.904 8.06317 27.137 8.18318 27.3416C8.30318 27.5463 8.47562 27.7152 8.6827 27.831C8.88978 27.9467 9.12399 28.0052 9.36118 28.0002C9.59837 27.9953 9.82994 27.9271 10.032 27.8028L27.3653 17.1361C27.5595 17.0168 27.7198 16.8498 27.831 16.6509C27.9422 16.452 28.0006 16.228 28.0006 16.0001C28.0006 15.7723 27.9422 15.5482 27.831 15.3493C27.7198 15.1505 27.5595 14.9834 27.3653 14.8641L10.032 4.19746C9.82994 4.07315 9.59837 4.005 9.36118 4.00005C9.12399 3.99509 8.88978 4.05351 8.6827 4.16928C8.47562 4.28505 8.30318 4.45397 8.18318 4.65862C8.06317 4.86326 7.99993 5.09622 8 5.33346Z" fill="white"/>
</svg>
