<svg width="14" height="14" viewBox="0 0 14 14" fill="none" xmlns="http://www.w3.org/2000/svg">
<path d="M10.8732 5.44947L5.41882 1.53979C4.82637 1.109 4.04969 1.04774 3.39534 1.37594C2.73019 1.70997 2.33325 2.34983 2.33325 3.08791V10.9087C2.33325 11.6473 2.73068 12.2871 3.39583 12.6207C3.67978 12.7632 3.98043 12.8337 4.27862 12.8337C4.6785 12.8337 5.07396 12.7068 5.41734 12.4573L10.8727 8.54716L10.8742 8.54619C11.3777 8.18055 11.6666 7.61654 11.6666 6.99807C11.6666 6.3796 11.3777 5.81559 10.8727 5.44947H10.8732ZM10.5844 8.15333L5.12849 12.064C4.67948 12.3907 4.11503 12.4359 3.61837 12.187C3.12122 11.9376 2.825 11.4601 2.825 10.9087V3.08742C2.825 2.53654 3.12171 2.05907 3.61837 1.80916C3.82912 1.70316 4.05117 1.64968 4.27862 1.64968C4.58074 1.64968 4.875 1.74741 5.12996 1.93314L10.5848 5.84282C10.9607 6.11559 11.1763 6.53665 11.1763 6.99807C11.1763 7.45949 10.9611 7.88007 10.5848 8.15333H10.5844Z" fill="white"/>
</svg>
