<svg width="25" height="24" viewBox="0 0 25 24" fill="none" xmlns="http://www.w3.org/2000/svg">
<path d="M15.4993 11.1666C15.9595 11.1666 16.3326 10.7935 16.3326 10.3333C16.3326 9.87308 15.9595 9.5 15.4993 9.5C15.0391 9.5 14.666 9.87308 14.666 10.3333C14.666 10.7935 15.0391 11.1666 15.4993 11.1666Z" fill="#6D6D6D"/>
<path d="M11.4039 13.666C10.9823 13.666 10.7414 14.176 11.0314 14.4826C11.5247 15.006 12.2239 15.3326 12.9997 15.3326C13.7755 15.3326 14.4746 15.006 14.9679 14.4826C15.2571 14.176 15.0171 13.666 14.5954 13.666H11.4031H11.4039Z" fill="#6D6D6D"/>
<path d="M22.9381 17.5843L21.8432 12.9295C21.8432 12.9295 21.8465 12.927 21.8474 12.9253C22.3215 12.4578 22.5823 11.8337 22.5823 11.1646C22.5823 10.0638 21.8624 9.108 20.8341 8.78552C20.2799 4.89737 16.9626 2 12.9994 2C7.52053 2 5.74728 6.13314 4.57483 8.86885C4.09652 9.9838 3.6832 10.9471 3.20739 11.2246C3.0449 11.3196 2.96574 11.5112 3.0149 11.6929C3.06407 11.8745 3.22906 12.0012 3.41738 12.0012C3.60071 12.0012 6.50474 11.9604 9.67709 10.2846C9.67626 10.3021 9.6671 10.3163 9.6671 10.3338C9.6671 10.7938 10.0404 11.1671 10.5004 11.1671C10.9604 11.1671 11.3337 10.7938 11.3337 10.3338C11.3337 10.003 11.137 9.72214 10.857 9.58798C12.1611 8.72969 13.4603 7.57474 14.5894 5.99398C14.7235 5.80649 14.6794 5.5465 14.4927 5.41318C14.306 5.27985 14.0452 5.32401 13.9119 5.50984C10.8787 9.75547 6.42391 10.8163 4.43734 11.0812C4.74816 10.5813 5.02648 9.9338 5.34146 9.19883C6.49224 6.51146 8.06967 2.83329 12.9994 2.83329C16.6334 2.83329 19.6608 5.55484 20.0416 9.16384C20.0608 9.34799 20.1991 9.49715 20.3816 9.52965C21.1732 9.67381 21.7482 10.3613 21.749 11.1671C21.749 11.6087 21.5765 12.022 21.2624 12.3312C20.9482 12.6403 20.5308 12.8137 20.0916 12.8012L19.7341 12.7962C19.5658 12.8103 19.395 12.9053 19.335 13.0737C18.5275 15.3627 15.8768 17.8309 13.0019 17.8309H13.0003C10.9729 17.8309 8.7913 16.5693 7.44303 14.6161C7.03138 14.0211 6.36475 13.6653 5.65728 13.6653C4.64816 13.6653 3.75903 14.3811 3.54404 15.3677L3.05573 17.6084C2.86574 18.7017 3.16656 19.815 3.8807 20.6641C4.59483 21.5133 5.64061 21.9999 6.75056 21.9999H10.0829C10.3071 22.0049 10.5037 21.8074 10.4996 21.5833V18.1443C11.3179 18.4817 12.1695 18.6659 12.9994 18.6667C13.8636 18.6667 14.7069 18.4651 15.4993 18.1293V21.5824C15.4993 21.8124 15.686 21.9991 15.916 21.9991H19.2483C20.3583 21.9991 21.4032 21.5124 22.1182 20.6633C22.8323 19.8142 23.1331 18.7017 22.9381 17.5843ZM6.75056 21.1666C5.88727 21.1666 5.07397 20.7875 4.51817 20.1275C3.96236 19.4675 3.72904 18.6009 3.8732 17.7684L4.35651 15.5469C4.489 14.9402 5.03481 14.5003 5.65561 14.5003C6.08893 14.5003 6.50057 14.7211 6.75556 15.0911C7.52553 16.2052 8.54465 17.1168 9.66543 17.7409V21.1658H6.74973L6.75056 21.1666ZM21.4799 20.1275C20.9241 20.7875 20.1108 21.1666 19.2475 21.1666H16.3318V17.7193C18.0209 16.7518 19.38 15.1761 20.0124 13.6345C20.4033 13.6486 20.7774 13.5745 21.1041 13.4295L22.1215 17.7509C22.269 18.6017 22.0349 19.4675 21.4799 20.1275Z" fill="#6D6D6D"/>
</svg>
