<svg width="196" height="232" viewBox="0 0 196 232" fill="none" xmlns="http://www.w3.org/2000/svg">
<path d="M141.833 132.512C158.753 130.415 151.17 143.132 154.112 152.437C155.147 155.71 158.329 160.381 159.865 163.98C159.286 167.571 157.375 175.866 160.758 178.313C168.509 177.988 164.501 169.379 164.695 165.514C164.809 163.257 170.379 161.108 171.057 158.755C172.1 155.137 171.522 150.823 172.153 147.099C172.71 140.669 177.906 136.024 183.073 141.847C185.935 145.071 178.248 151.359 177 154.604C175.5 158.509 179.955 162.216 177.817 166.152C176.152 169.17 170.781 171.918 169.995 175.551C169.727 176.79 170.074 177.639 170.763 178.575C175.181 177.373 189.9 165.849 190.161 177.661C188.47 182.226 182.637 182.131 178.651 181.558L176.003 185.889C169.118 186.186 164.567 185.554 158.969 191.041C158.073 191.921 158.24 191.95 158.338 192.888C161.85 195.121 170.461 191.556 174.349 192.543C177.343 193.303 189.071 198.497 186.216 202.892C180.078 212.342 165.317 198.455 156.003 203.744C154.438 204.634 154.626 204.406 154.062 206.01C155.408 211.136 160.8 210.623 164.789 209.945L168.523 214.157C172.729 213.78 176.263 212.507 178.245 217.105C178.149 218.798 177.938 219.008 176.838 220.317C168.032 230.803 154.963 207.448 148.385 214.812C145.734 223.53 155.718 222.346 161.407 223.386C162.866 224.445 164.082 225.641 165.404 226.863C166.032 230.141 164.967 231.485 161.711 231.921C155.741 232.719 157.091 227.212 150.945 228.267L150.599 228.329C148.964 227.353 148.532 225.602 147.294 224.366C141.738 218.819 136.423 229.037 131.383 228.767C129.815 225.617 136.532 220.664 136.617 215.227C134.751 211.309 131.566 212.783 128.2 210.502C126.03 209.198 127.572 205.685 126.461 204.091C125.186 202.261 122.453 199.207 125.143 197.029C131.969 191.5 137.74 208.982 142.687 209.005C145.791 202.784 137.551 196.73 134.617 191.917C133.729 190.46 132.723 186.959 132.198 185.211C130.503 184.322 128.299 183.365 127.383 181.625C124.966 177.033 129.484 172.657 134.157 174.81C137.78 176.479 138.321 179.72 139.468 183.187C152.842 190.435 143.392 195.536 146.869 206.643C148.045 206.917 147.42 206.902 148.812 206.135C154.058 199.037 148.003 190.816 148.208 181.115C146.063 178.414 142.91 176.551 140.997 173.78C140.168 172.581 139.672 167.365 138.732 166.281C136.186 163.342 132.456 160.849 130.386 157.465C129.489 156 129.277 155.065 129.724 153.466C131.163 151.394 134.358 149.852 136.705 151.16C141.423 153.79 142.114 161.035 144.711 165.215C146.372 167.887 150.962 170.023 151.953 173.425C152.949 177.01 152.422 182.012 153.729 185.369C154.242 185.419 154.812 185.645 155.112 185.196C160.727 176.807 154.101 165.797 149.203 159.223C149.12 149.201 146.98 148.54 140.732 141.112C137.937 137.789 138.928 135.325 141.833 132.512Z" fill="#EC6060"/>
<path opacity="0.3" d="M100.469 25.6804C94.8363 19.0444 90.0145 -1.04289 102.772 0.0423191C104.547 0.204004 106.155 1.15353 107.148 2.62514C110.909 8.20465 105.326 24.1101 104.149 30.8461C104.291 31.6641 104.777 34.9115 105.074 35.4445C116.621 28.3153 117.061 47.2722 117.854 53.9369C119.473 51.3102 121.579 46.8721 123.045 44.0001C121.171 38.0082 115.88 30.1363 118.138 24.4294C120.232 22.7591 119.084 23.1359 121.649 23.1167C125.321 25.8133 124.197 31.0201 125.492 36.1542C127.318 35.0074 131.465 24.5513 131.221 22.3192C129.634 7.77442 148.438 -0.818172 157.337 8.58286C166.091 17.8291 144.619 25.5639 136.71 24.3061L135.908 24.1745C133.683 30.2308 131.384 35.6445 128.835 41.5707C133.876 39.3414 149.68 32.7287 150.94 41.8132C147.465 49.5166 133.785 46.8775 126.82 46.5871L123.44 53.1586C128.014 51.8391 136.445 48.7314 139.421 53.7724C136.726 60.9386 126.179 59.8343 119.929 59.6493C114.717 68.2337 109.868 77.0291 105.392 86.0149C113.739 82.9004 124.092 82.5634 130.951 76.5426C132.348 74.6983 132.949 71.0097 134.099 69.1709C136.035 64.8479 148.246 61.5073 151.747 64.6108C164.033 75.5013 150.98 91.4191 135.391 80.0518L134.67 79.5201C128.45 84.2104 126.61 84.631 118.889 86.5863C123.396 87.6756 129.626 88.1086 130.393 93.3908C124.698 99.5595 115.782 92.0973 111.535 87.9113C106.267 90.5092 104.514 92.0575 100.582 96.3312C101.018 102.04 100.881 110.024 100.924 115.898C104.684 111.495 111.737 102.584 117.899 108.14C118.613 115.305 105.532 120.518 101.04 126.764C100.891 129.667 100.936 135.836 99.0739 137.875L97.5668 137.645C95.098 134.781 96.7347 124.555 96.7636 119.663C86.3706 102.087 78.3541 107.326 73.3036 101.437C73.1673 100.147 72.7967 99.5252 73.7734 98.5606C81.5516 90.8696 90.9251 100.029 96.0004 104.764C94.5497 99.6855 93.2382 96.1846 91.3357 91.3204C83.6057 91.3766 69.3099 91.2382 66.7268 82.0674C67.2048 79.4571 66.6083 80.5067 68.4667 78.7473C74.6937 76.6646 81.7665 83.391 88.6809 86.6329C86.0854 81.8056 78.0166 70.8056 74.4374 65.3357C65.8685 62.9049 59.1015 63.1159 50.5504 61.5018C47.6684 60.9579 47.2234 60.3783 46 58.3134C46.1612 55.6565 45.7217 56.8184 47.3845 54.7124C53.2313 52.0761 64.838 56.9842 70.9713 59.0259C68.6486 53.075 66.3645 47.1187 64.1037 41.1459C63.1917 38.7398 58.4099 38.7714 56.0362 37.5738C47.3612 33.1932 46.2742 16.2971 56.4054 13.2292C59.3481 12.3564 62.5277 12.7839 65.1301 14.4049C73.2251 19.4349 73.4263 30.0198 68.7106 37.5066L68.2642 38.2068C72.4963 51.6363 75.0781 57.8584 82.4871 69.745C82.6662 64.5204 83.7613 48.7369 92.7422 55.0043C94.8363 59.4013 89.2155 69.5546 88.5074 77.7142C90.8576 81.2863 93.1018 85.212 95.2951 88.9019C93.7783 66.1098 96.9909 48.1724 100.469 25.6804Z" fill="#8F8F8F"/>
<path d="M27.452 32.0017C42.362 30.233 46.854 42.2205 47.859 54.6803C48.305 60.2159 46.2131 73.6564 51.041 76.9018C62.2071 77.7771 51.994 48.0914 63.62 43.8578C68.509 42.0776 72.132 43.5346 73.565 48.3525C79.592 68.6188 49.4051 78.2485 55.7491 98.2152C56.2351 99.7548 57.537 101.678 59.027 102.328C62.497 99.9746 62.438 85.8791 69.73 80.7161C73.901 77.7621 88.741 71.2356 87.907 82.5551C87.388 89.584 75.352 96.8754 69.294 100.214C54.553 108.34 64.091 120.844 61.666 131.51L59.867 132.185C56.279 129.295 55.495 124.082 54.609 119.893C49.568 106.1 42.522 106.151 31.225 113.034C24.709 117.004 14.825 119.649 7.74004 115.793C2.65404 113.025 -0.165951 107.765 3.61205 102.725C7.51505 96.5114 12.927 96.5164 19.336 97.3131C25.452 98.0719 42.687 107.184 46.558 100.109C46.991 96.2817 44.5161 94.6008 42.6231 91.6359C34.467 78.8592 20.113 89.6397 8.63904 84.4051C3.31904 81.9793 -1.85895 75.6964 0.653049 69.5587C1.50605 67.5636 4.88004 64.8726 7.13305 64.5519C18.164 62.9816 27.504 72.3485 35.656 78.2754C37.231 79.4321 39.07 79.9572 40.965 79.5266C49.535 72.1357 27.217 63.045 23.853 56.8467C18.886 47.6931 17.889 38.2476 27.452 32.0017Z" fill="#F5732B"/>
<g clip-path="url(#clip0_166_2703)">
<path d="M104.202 167.006C84.9495 167.006 69.3709 151.533 69.3709 132.41C69.3709 113.288 84.9495 97.8148 104.202 97.8148C123.455 97.8148 139.033 113.288 139.033 132.41C139.033 137.228 138.005 141.899 136.241 145.986L149.762 159.415C154.612 151.533 157.257 142.191 157.257 132.264C157.404 103.216 133.596 79.5681 104.202 79.5681C74.8087 79.5681 51 103.216 51 132.41C51 161.605 74.8087 185.253 104.202 185.253C114.196 185.253 123.602 182.479 131.538 177.808L117.87 164.233C113.755 165.984 109.052 167.006 104.202 167.006ZM93.9144 132.41C93.9144 138.103 98.4704 142.629 104.202 142.629C109.934 142.629 114.49 138.103 114.49 132.41C114.49 126.717 109.934 122.192 104.202 122.192C98.4704 122.192 93.9144 126.717 93.9144 132.41ZM154.612 169.634C158.139 173.137 158.139 178.976 154.612 182.479C151.085 185.983 145.206 185.983 141.679 182.479L114.784 155.766C111.257 152.263 111.257 146.424 114.784 142.92C118.311 139.417 124.19 139.417 127.717 142.92L154.612 169.634Z" fill="white"/>
</g>
<path d="M151.297 51.4995C152.08 46.1363 154.573 26.1212 161.138 27.9683C169 30.1806 162.93 53.5854 161.432 57.3208C160.833 58.7724 160.2 60.2096 159.533 61.6313C166.577 56.7531 174.133 53.2272 182.967 54.2046C184.927 54.4215 188.15 55.9584 187.363 58.1851C185.328 63.9482 174.19 66.6457 169.179 68.1685C175.527 67.361 191.99 65.2148 195.914 71.4478C196.023 72.4738 196.177 73.5703 195.331 74.3628C187.898 81.3218 172.761 79.3952 164.231 77.9751C170.041 83.7405 175.125 89.9844 175.799 98.5073C175.976 100.749 174.658 103.977 172.062 103.42C166.635 102.256 162.252 93.5885 159.665 89.3335C161.548 94.9007 167.139 111.632 160.688 115.558C156.266 118.247 150.54 101.454 149.918 98.8706C147.674 102.178 142.836 109.489 138.038 106.089C135.738 102.832 137.531 99.0727 138.926 95.7622C138.596 94.9638 138.137 94.6125 137.524 94.0054C119.867 111.318 114.344 100.322 128.497 85.5845C125.401 85.638 116.775 86.002 116.306 81.9761C118.602 75.8616 129.629 73.4454 135.183 71.9507C129.037 72.4615 112.37 73.9269 109.013 67.6665C108.975 66.4335 108.956 65.2788 110.046 64.4302C118.546 57.8101 135.234 60.4608 144.354 63.2544C140.302 55.2859 137.727 47.2183 140.143 38.1499C141.749 32.1189 146.84 32.4946 148.834 38.0376C150.559 42.5158 150.864 46.8249 151.297 51.4995ZM153.835 68.6177C152.342 67.6505 150.441 67.5551 148.858 68.3687C146.446 69.6088 145.486 72.5497 146.708 74.9624C147.929 77.3749 150.875 78.3594 153.313 77.1694C154.913 76.3883 155.969 74.813 156.076 73.0444C156.184 71.275 155.329 69.5849 153.835 68.6177Z" fill="#8F8F8F"/>
<path d="M37.2722 153.668C41.4221 151.954 41.8241 150.322 45.0721 147.762C49.0961 144.883 54.9681 146.238 57.8771 149.88C60.8001 153.538 66.4831 153.225 67.8181 157.661C70.5521 166.743 62.4291 178.375 57.8931 185.485C65.5921 179.197 62.7051 175.474 74.2551 171.399C76.1561 168.498 79.0941 163.115 82.4831 162.307C85.5961 163.582 86.1731 167.711 86.7931 170.735C89.8321 185.565 72.7911 189.417 62.2451 193.169C68.0931 192.447 89.0901 186.681 91.9591 188.754C93.1141 193.423 86.3081 197.984 82.3831 198.56C75.4841 199.576 67.6861 198.965 60.6611 199.062C65.0891 200.164 74.3031 201.63 77.0851 204.067L77.3551 205.089C76.4091 206.412 74.9461 206.898 73.3541 207.06C65.2201 207.89 59.6351 204.982 54.2321 199.536C48.8881 202.782 53.4921 203.656 53.2691 210.644C53.1651 213.884 53.2511 215.86 49.6441 216.82C41.3991 214.214 47.5221 205.792 47.3291 196.899C42.8621 201.224 31.3155 212.098 24.2934 207.23C22.5626 202.733 29.7742 199.622 33.1949 198.307C32.3093 197.836 30.7891 197.512 29.756 197.238C20.3837 194.129 15.5322 201.655 11.39 188.122C10.7693 186.094 3.00759 177.914 7.27479 175.833C9.06879 175.98 10.9228 176.744 12.3252 177.857C20.5764 184.405 28.6682 187.488 38.9778 189.593C33.9088 186.32 13.0075 174.341 17.0215 166.319C17.9118 164.54 21.2168 163.605 23.1402 162.989C23.4017 161.456 23.9055 157.621 25.0254 156.872C33.4882 151.217 41.8261 177.353 43.6061 182.374C42.1481 170.837 40.6091 164.747 37.2722 153.668Z" fill="#2B2B2B"/>
<defs>
<clipPath id="clip0_166_2703">
<rect width="108" height="105.685" fill="white" transform="translate(50 79.3115)"/>
</clipPath>
</defs>
</svg>
