<svg width="16" height="16" viewBox="0 0 16 16" fill="none" xmlns="http://www.w3.org/2000/svg">
<g clip-path="url(#clip0_166_2689)">
<path d="M7.98021 13.0241C5.12795 13.0241 2.82 10.7193 2.82 7.87097C2.82 5.02263 5.12795 2.71788 7.98021 2.71788C10.8324 2.71788 13.1404 5.02263 13.1404 7.87097C13.1404 8.58849 12.988 9.28426 12.7267 9.89306L14.7298 11.8934C15.4483 10.7193 15.8402 9.32774 15.8402 7.84921C15.862 3.52237 12.3348 0 7.98021 0C3.6256 0 0.0983887 3.52237 0.0983887 7.87097C0.0983887 12.2196 3.6256 15.7419 7.98021 15.7419C9.46075 15.7419 10.8542 15.3288 12.03 14.633L10.0051 12.6109C9.39543 12.8719 8.69871 13.0241 7.98021 13.0241ZM6.45608 7.87097C6.45608 8.71894 7.13104 9.39298 7.98021 9.39298C8.82934 9.39298 9.50431 8.71894 9.50431 7.87097C9.50431 7.02299 8.82934 6.34895 7.98021 6.34895C7.13104 6.34895 6.45608 7.02299 6.45608 7.87097ZM15.4483 13.4154C15.9709 13.9373 15.9709 14.807 15.4483 15.3288C14.9258 15.8507 14.0548 15.8507 13.5323 15.3288L9.54784 11.3499C9.02529 10.828 9.02529 9.9583 9.54784 9.43646C10.0704 8.91463 10.9413 8.91463 11.4639 9.43646L15.4483 13.4154Z" fill="#F3CD00"/>
</g>
<defs>
<clipPath id="clip0_166_2689">
<rect width="16" height="15.7419" fill="white"/>
</clipPath>
</defs>
</svg>
